<?xml version="1.0" encoding="UTF-8"?>
<svg version="1.1" xmlns="http://www.w3.org/2000/svg" width="500" height="500" viewBox="64 226 446 56">
<path d="M0 0 C165 0 330 0 500 0 C500 165 500 330 500 500 C335 500 170 500 0 500 C0 335 0 170 0 0 Z " fill="#FEFEFE" transform="translate(0,0)"/>
<path d="M0 0 C1.32 0 2.64 0 4 0 C4.0093457 0.80219971 4.01869141 1.60439941 4.02832031 2.4309082 C4.08193742 6.05873639 4.16560298 9.68526292 4.25 13.3125 C4.26417969 14.57513672 4.27835938 15.83777344 4.29296875 17.13867188 C4.32519531 18.34716797 4.35742188 19.55566406 4.390625 20.80078125 C4.41157227 21.91622314 4.43251953 23.03166504 4.45410156 24.1809082 C4.75468049 27.06646525 4.75468049 27.06646525 6.73535156 28.86474609 C9.31816585 30.15949452 10.96521792 30.37357762 13.84375 30.36328125 C14.76027344 30.36263672 15.67679688 30.36199219 16.62109375 30.36132812 C17.57113281 30.34521484 18.52117187 30.32910156 19.5 30.3125 C20.92505859 30.31733398 20.92505859 30.31733398 22.37890625 30.32226562 C27.14163894 30.28542311 29.61393077 30.19303461 34 28 C34.33 19.09 34.66 10.18 35 1 C36.65 0.67 38.3 0.34 40 0 C42.71699018 2.71699018 41.33380281 10.59843122 41.375 14.25 C41.43107422 16.11205078 41.43107422 16.11205078 41.48828125 18.01171875 C41.57663608 27.13190059 41.57663608 27.13190059 38.8515625 31.234375 C32.33688179 35.26812251 26.47501185 35.33728452 19 35.3125 C17.54207031 35.33666992 17.54207031 35.33666992 16.0546875 35.36132812 C10.64848857 35.36501082 6.59242119 35.17881654 2 32 C-1.16790828 28.67511477 -1.36639563 26.25850425 -1.328125 21.73828125 C-1.32296875 20.53751953 -1.3178125 19.33675781 -1.3125 18.09960938 C-1.291875 16.84986328 -1.27125 15.60011719 -1.25 14.3125 C-1.24484375 13.05115234 -1.2396875 11.78980469 -1.234375 10.49023438 C-1.15393298 1.15393298 -1.15393298 1.15393298 0 0 Z " fill="#121212" transform="translate(195,236)"/>
<path d="M0 0 C1.98 0.495 1.98 0.495 4 1 C4.33 10.24 4.66 19.48 5 29 C9.75232694 30.18808174 14.06466489 30.18400191 18.9375 30.1875 C20.27844727 30.20586914 20.27844727 30.20586914 21.64648438 30.22460938 C22.51466797 30.22654297 23.38285156 30.22847656 24.27734375 30.23046875 C25.06359131 30.23457764 25.84983887 30.23868652 26.65991211 30.24291992 C29.52866488 30.05295359 29.52866488 30.05295359 34 28 C34.33 19.09 34.66 10.18 35 1 C36.65 0.67 38.3 0.34 40 0 C40.0990914 4.05664947 40.17157106 8.1128277 40.21972656 12.17041016 C40.23980642 13.5497668 40.26707666 14.92903869 40.30175781 16.30810547 C40.35042817 18.29356979 40.37086418 20.27966254 40.390625 22.265625 C40.41157227 23.45961914 40.43251953 24.65361328 40.45410156 25.88378906 C39.90673465 29.64002095 38.99660037 30.74440137 36 33 C29.80903433 35.117607 23.88005611 35.36575986 17.375 35.375 C16.00214844 35.41173828 16.00214844 35.41173828 14.6015625 35.44921875 C8.89308377 35.47396649 5.47113182 34.90695115 1 31 C-1.34963594 27.47554609 -1.24591382 26.00489606 -1.23046875 21.8359375 C-1.22756836 20.02996094 -1.22756836 20.02996094 -1.22460938 18.1875 C-1.21236328 16.929375 -1.20011719 15.67125 -1.1875 14.375 C-1.18685547 13.10914063 -1.18621094 11.84328125 -1.18554688 10.5390625 C-1.14016594 1.14016594 -1.14016594 1.14016594 0 0 Z " fill="#070707" transform="translate(265,236)"/>
<path d="M0 0 C3.0699667 0.30489395 4.59905249 0.5867427 6.78125 2.8359375 C7.63203125 4.09277344 7.63203125 4.09277344 8.5 5.375 C9.16902344 6.35339844 9.83804687 7.33179688 10.52734375 8.33984375 C10.90616699 8.90558105 11.28499023 9.47131836 11.67529297 10.05419922 C13.22801498 12.33492063 14.83349625 14.57426751 16.44140625 16.81640625 C17.6492587 18.52285654 18.85628735 20.22989022 20.0625 21.9375 C20.65933594 22.76620605 21.25617188 23.59491211 21.87109375 24.44873047 C22.42023438 25.23779785 22.969375 26.02686523 23.53515625 26.83984375 C24.034104 27.54488037 24.53305176 28.24991699 25.04711914 28.97631836 C26 31 26 31 25.65405273 33.26000977 C25.33029663 34.12130493 25.33029663 34.12130493 25 35 C23.27050781 34.87524414 23.27050781 34.87524414 21 34 C19.39164701 32.02087579 18.03411314 30.133678 16.671875 27.99609375 C16.27800598 27.39821548 15.88413696 26.80033722 15.47833252 26.18434143 C14.22453099 24.2756817 12.98720709 22.35694803 11.75 20.4375 C10.90210665 19.14057916 10.05316029 17.84434609 9.203125 16.54882812 C7.12311993 13.3737329 5.05782887 10.18950826 3 7 C0.01533134 9.82373467 -2.31708004 12.7218716 -4.6015625 16.1328125 C-5.25640625 17.10347656 -5.91125 18.07414062 -6.5859375 19.07421875 C-7.25882812 20.08097656 -7.93171875 21.08773438 -8.625 22.125 C-9.96942204 24.12890179 -11.31568761 26.13156835 -12.6640625 28.1328125 C-13.25654785 29.01855957 -13.8490332 29.90430664 -14.45947266 30.81689453 C-16 33 -16 33 -18 35 C-20.125 34.625 -20.125 34.625 -22 34 C-20.59031319 30.09924705 -18.75037213 26.88015955 -16.4453125 23.4375 C-15.74792969 22.39335937 -15.05054688 21.34921875 -14.33203125 20.2734375 C-13.60371094 19.19320312 -12.87539063 18.11296875 -12.125 17 C-11.40441406 15.91976562 -10.68382812 14.83953125 -9.94140625 13.7265625 C-6.77602523 9.0047234 -3.60244313 4.4024312 0 0 Z " fill="#0C0C0C" transform="translate(415,236)"/>
<path d="M0 0 C2.91837868 0.33310285 4.57267575 0.59572245 6.73828125 2.64453125 C7.51751953 3.71767578 7.51751953 3.71767578 8.3125 4.8125 C8.90546875 5.62332031 9.4984375 6.43414062 10.109375 7.26953125 C12.80962294 11.16926949 15.46883505 15.09095055 18.0625 19.0625 C19.30016931 20.93896638 20.56844798 22.79582718 21.875 24.625 C22.431875 25.40875 22.98875 26.1925 23.5625 27 C24.05878906 27.680625 24.55507812 28.36125 25.06640625 29.0625 C26 31 26 31 25.65234375 33.25 C25.43707031 33.8275 25.22179687 34.405 25 35 C21.9641998 34.70327081 21.10356963 34.12531911 19.12475586 31.73095703 C18.49448486 30.74981934 17.86421387 29.76868164 17.21484375 28.7578125 C16.51939453 27.69175781 15.82394531 26.62570312 15.10742188 25.52734375 C14.38350585 24.39361763 13.66020454 23.25949877 12.9375 22.125 C11.51432684 19.91582909 10.08387491 17.71159955 8.65234375 15.5078125 C7.70862915 14.03272217 7.70862915 14.03272217 6.74584961 12.52783203 C4.96021254 9.78022447 4.96021254 9.78022447 2 7 C-4.27 16.24 -10.54 25.48 -17 35 C-18.32 34.67 -19.64 34.34 -21 34 C-20.52604995 28.86554115 -17.91559342 25.56276823 -15 21.5 C-14.26656372 20.45682617 -14.26656372 20.45682617 -13.51831055 19.39257812 C-12.51191101 17.96134132 -11.50237231 16.53230685 -10.48974609 15.10546875 C-8.23728402 11.92204808 -6.02621003 8.71042123 -3.8125 5.5 C-2.54193995 3.66647726 -1.27121878 1.83306609 0 0 Z " fill="#0C0C0C" transform="translate(79,236)"/>
<path d="M0 0 C2.42498346 0.37634045 3.68270087 0.64828528 5.3527832 2.49951172 C5.74812256 3.13646973 6.14346191 3.77342773 6.55078125 4.4296875 C6.99897217 5.13810791 7.44716309 5.84652832 7.90893555 6.57641602 C8.60369995 7.71421509 8.60369995 7.71421509 9.3125 8.875 C9.79307861 9.64062256 10.27365723 10.40624512 10.76879883 11.19506836 C11.7351278 12.73591883 12.69669981 14.27976356 13.65332031 15.82666016 C15.46931342 18.75740175 17.32790181 21.65924976 19.1875 24.5625 C20.12570638 26.04121872 21.06352792 27.52018234 22 29 C25.82378349 25.57269176 28.2454894 21.66033467 30.875 17.3125 C31.75417576 15.88087579 32.63437982 14.44988255 33.515625 13.01953125 C33.93908203 12.33068848 34.36253906 11.6418457 34.79882812 10.93212891 C37.10370489 7.22465031 39.53731034 3.60393609 42 0 C43.32 0.33 44.64 0.66 46 1 C45.53272912 6.15986358 42.87148155 9.48622553 39.9375 13.5625 C38.93236838 14.98090328 37.92847305 16.40018342 36.92578125 17.8203125 C36.42900879 18.52188477 35.93223633 19.22345703 35.42041016 19.94628906 C34.11753195 21.83006553 32.8793211 23.73619911 31.66796875 25.6796875 C30.99378906 26.75476563 30.31960938 27.82984375 29.625 28.9375 C29.03976562 29.89527344 28.45453125 30.85304688 27.8515625 31.83984375 C25.64325848 34.41619844 24.32341119 34.73161456 21 35 C15.24464789 28.79027799 10.78451904 21.83588796 6.17333984 14.76806641 C4.15690475 11.72956808 2.01663415 8.7747534 -0.13671875 5.83203125 C-1 4 -1 4 -0.64453125 1.76171875 C-0.43183594 1.18035156 -0.21914063 0.59898437 0 0 Z " fill="#0E0E0E" transform="translate(332,236)"/>
<path d="M0 0 C0.556875 0.226875 1.11375 0.45375 1.6875 0.6875 C1.6875 1.6775 1.6875 2.6675 1.6875 3.6875 C-0.24023438 5.22143555 -0.24023438 5.22143555 -2.90625 6.82421875 C-3.75896484 7.34459717 -4.61167969 7.86497559 -5.49023438 8.40112305 C-6.58658203 9.05250244 -7.68292969 9.70388184 -8.8125 10.375 C-14.01 13.4996875 -14.01 13.4996875 -19.3125 16.6875 C-12.0525 21.3075 -4.7925 25.9275 2.6875 30.6875 C2.3575 32.0075 2.0275 33.3275 1.6875 34.6875 C-2.55416344 34.11902964 -5.28494552 32.66671219 -8.83203125 30.30859375 C-9.85361328 29.63505859 -10.87519531 28.96152344 -11.92773438 28.26757812 C-12.98283203 27.56052734 -14.03792969 26.85347656 -15.125 26.125 C-16.73665039 25.05862305 -16.73665039 25.05862305 -18.38085938 23.97070312 C-21.02954066 22.21668752 -23.67310589 20.45544691 -26.3125 18.6875 C-25.94432996 16.10093183 -25.6032443 14.94747793 -23.62597656 13.17944336 C-22.90893555 12.71675049 -22.19189453 12.25405762 -21.453125 11.77734375 C-20.66679687 11.26236328 -19.88046875 10.74738281 -19.0703125 10.21679688 C-18.24273437 9.69150391 -17.41515625 9.16621094 -16.5625 8.625 C-15.75039062 8.09583984 -14.93828125 7.56667969 -14.1015625 7.02148438 C-11.84903055 5.55953978 -9.58349359 4.12053196 -7.3125 2.6875 C-6.34441406 2.06359375 -5.37632812 1.4396875 -4.37890625 0.796875 C-2.3125 -0.3125 -2.3125 -0.3125 0 0 Z " fill="#0D0D0D" transform="translate(164.3125,236.3125)"/>
<path d="M0 0 C1.98 0.495 1.98 0.495 4 1 C4 11.89 4 22.78 4 34 C2.02 34.495 2.02 34.495 0 35 C-1.70492881 33.29507119 -1.1280442 31.15465739 -1.13894653 28.88098145 C-1.1369223 28.16744507 -1.13489807 27.45390869 -1.1328125 26.71875 C-1.13376923 25.99006714 -1.13472595 25.26138428 -1.13571167 24.51062012 C-1.13639335 22.9672029 -1.13453988 21.42378283 -1.13037109 19.88037109 C-1.12502262 17.510026 -1.13031642 15.13987041 -1.13671875 12.76953125 C-1.13605797 11.27343708 -1.1347768 9.77734303 -1.1328125 8.28125 C-1.13483673 7.56771362 -1.13686096 6.85417725 -1.13894653 6.11901855 C-1.11495191 1.11495191 -1.11495191 1.11495191 0 0 Z " fill="#010101" transform="translate(132,236)"/>
</svg>
