<?xml version="1.0" encoding="UTF-8"?>
<svg version="1.1" xmlns="http://www.w3.org/2000/svg" width="2000" height="2000">
<path d="M0 0 C1.30517578 1.47436523 1.30517578 1.47436523 2.4453125 3.55859375 C2.87755127 4.32888916 3.30979004 5.09918457 3.75512695 5.89282227 C4.43321411 7.15243774 4.43321411 7.15243774 5.125 8.4375 C6.09951612 10.18531103 7.07479256 11.93269833 8.05078125 13.6796875 C8.54143066 14.56881836 9.03208008 15.45794922 9.53759766 16.37402344 C11.72940401 20.30976119 14.01696795 24.18664667 16.3125 28.0625 C16.72806152 28.76834229 17.14362305 29.47418457 17.57177734 30.20141602 C19.77398324 33.94073505 22.00009592 37.66411924 24.25 41.375 C27.33459032 46.49281323 30.16341883 51.74194709 33 57 C36.27907977 63.05094751 36.27907977 63.05094751 39.9375 68.875 C42.93461774 73.41608748 45.42910567 78.20820932 48 83 C53.59072859 93.58182015 53.59072859 93.58182015 59.875 103.75 C62.8776997 108.34236425 65.40284953 113.16997472 68 118 C71.06759513 123.63169439 74.26915365 129.16207995 77.58984375 134.6484375 C78.80009297 136.66663702 79.9726923 138.69844041 81.125 140.75 C82.92493012 143.96382049 82.92493012 143.96382049 84.875 146.75 C86.63592332 149.44317684 88.16970285 152.10678741 89.6875 154.9375 C92.15293003 159.53131393 94.78534005 163.98936888 97.5 168.4375 C100.21600975 172.89595087 102.73819592 177.35040817 105 182.0625 C107.51102176 187.25892004 110.49245841 191.97050563 113.67260742 196.76953125 C116.74198717 201.45461376 119.26283894 206.28981045 121.61328125 211.37890625 C122.93688755 214.0805465 122.93688755 214.0805465 124.98046875 216.46484375 C127.15305896 219.19213784 128.49503054 221.85852134 130 225 C131.4040309 227.60218396 132.85801908 230.17574105 134.3125 232.75 C134.91288086 233.81541016 134.91288086 233.81541016 135.52539062 234.90234375 C138.07965157 239.41857325 140.71036112 243.87926051 143.40625 248.3125 C145.49883843 251.84117853 147.49817249 255.41926046 149.5 259 C152.41100614 264.20600272 155.38130002 269.36005127 158.48046875 274.45703125 C160.3275136 277.54810116 162.10094509 280.6792592 163.875 283.8125 C167.15013385 289.59539209 170.59012241 295.24800365 174.140625 300.8671875 C175.50082697 303.15895636 176.70558177 305.38278049 177.8671875 307.76953125 C180.25111377 312.62516401 183.05765682 317.19905646 185.875 321.8125 C189.62994531 328.01190562 193.3254542 334.20734783 196.71875 340.61328125 C199.9501834 346.63281115 203.46100509 352.49510855 206.9375 358.375 C210.03577261 363.62262152 213.07278612 368.89076729 215.99609375 374.23828125 C216.90229334 375.82853812 217.91461272 377.35716726 218.9375 378.875 C220.66028633 381.48528231 222.14842377 384.06201487 223.625 386.8125 C226.29700681 391.78351775 229.12304826 396.64621423 232 401.5 C243 420.10366766 243 420.10366766 243 423 C243.66 423 244.32 423 245 423 C245.29132812 423.60585938 245.58265625 424.21171875 245.8828125 424.8359375 C248.59772736 430.38529178 251.54276277 435.66030531 254.86328125 440.87109375 C256 443 256 443 256 446 C256.66 446 257.32 446 258 446 C258.49306641 446.91265625 258.49306641 446.91265625 258.99609375 447.84375 C263.57400888 456.28001636 268.27107411 464.64772358 273 473 C273.36061523 473.63873047 273.72123047 474.27746094 274.09277344 474.93554688 C275.65364653 477.68765059 277.24402771 480.36604156 279 483 C280.7438968 485.6158452 282.32584339 488.27106866 283.86328125 491.01171875 C285.68861825 494.20449034 287.61771665 497.33456545 289.53515625 500.47265625 C291.15072301 503.26004743 292.56208378 506.11704916 294 509 C295.36615515 511.53764634 296.77323346 514.05140544 298.1875 516.5625 C298.58042236 517.26141357 298.97334473 517.96032715 299.37817383 518.68041992 C302.50717598 524.20880553 305.8115978 529.60509785 309.171875 534.99609375 C311.37432775 538.61508128 313.37321918 542.32024076 315.37109375 546.0546875 C317.32715999 549.59155547 319.40497614 553.04422806 321.5 556.5 C324.6142358 561.6387782 327.56819638 566.82729991 330.40625 572.125 C332.35290656 575.63661576 334.41941183 579.06657844 336.5 582.5 C339.67643765 587.74313923 342.7261902 593.02745551 345.61328125 598.4375 C348.74456366 604.22375707 352.09878962 609.87001013 355.5 615.5 C357.73808919 619.20468688 359.96245607 622.91283869 362.1015625 626.67578125 C363.64645882 629.38093921 365.23811131 632.03795984 366.875 634.6875 C369.72860594 639.40027345 372.15458148 644.25926986 374.5078125 649.23828125 C376.0696639 652.12893293 377.92741633 654.45941357 380 657 C381.0546875 658.88671875 381.0546875 658.88671875 381.875 660.6875 C383.8593789 664.82813314 386.17600976 668.70909603 388.5625 672.62890625 C389.73989964 674.57097576 390.88342665 676.5227347 392 678.5 C393.57339992 681.28270729 395.21642275 684.01721469 396.875 686.75 C400.08484154 692.07817525 403.04719067 697.52649978 406 703 C408.80297133 708.16721671 411.71203551 713.12108495 415 718 C415.96582019 719.67408833 416.93044511 721.34897819 417.875 723.03515625 C419.16179708 725.2825831 420.51931173 727.48097613 421.875 729.6875 C424.72860594 734.40027345 427.15458148 739.25926986 429.5078125 744.23828125 C430.92444612 747.05859455 430.92444612 747.05859455 432.9921875 749.48046875 C435.15225732 752.1910622 436.50584318 754.87949553 438 758 C439.08821476 759.90503456 440.19282547 761.80078407 441.3125 763.6875 C443.57247393 767.52804025 445.77045026 771.38478879 447.875 775.3125 C450.68014621 780.50805306 453.69233428 785.56331773 456.75341797 790.6105957 C457.84074097 792.40402598 458.92080583 794.20166919 460 796 C460.38381836 796.62841797 460.76763672 797.25683594 461.16308594 797.90429688 C464 802.65993294 464 802.65993294 464 806 C462.7625 806.60134766 462.7625 806.60134766 461.5 807.21484375 C454.18260726 810.81637299 447.03962998 814.62133057 439.95825195 818.66625977 C435.76382404 821.04788868 431.5268189 823.26343387 427.1875 825.375 C418.19930788 829.79205441 409.62470383 834.91918736 401 840 C398.83435328 841.2725906 396.66745663 842.54298969 394.5 843.8125 C393.27796875 844.53373047 393.27796875 844.53373047 392.03125 845.26953125 C389.35279447 846.798598 386.65254153 848.26788428 383.9375 849.73046875 C377.67691677 853.13426564 371.58966612 856.80136843 365.5 860.5 C359.55995319 864.10775849 353.63256975 867.69705718 347.5078125 870.984375 C341.3075409 874.32452852 335.35081922 878.02701568 329.375 881.75 C322.0885843 886.2690745 314.79314098 890.76184688 307.375 895.0625 C300.3581777 899.14384757 293.45165642 903.39450868 286.5625 907.6875 C285.56718262 908.30568604 284.57186523 908.92387207 283.54638672 909.56079102 C277.97236477 913.0493358 272.53090125 916.66330135 267.18994141 920.5 C265.11865621 921.91872645 263.02995284 923.13907816 260.8125 924.3125 C256.36084094 926.69473917 252.19330191 929.44639913 248 932.25 C247.32815674 932.69899658 246.65631348 933.14799316 245.96411133 933.6105957 C242.83358077 935.6176924 242.83358077 935.6176924 240 938 C237.9386031 938.09834203 235.87376315 938.12447123 233.81002182 938.1241985 C233.15181548 938.12547658 232.49360915 938.12675467 231.81545717 938.12807148 C229.57792102 938.1311693 227.34045354 938.12705008 225.10291958 938.12304783 C223.48841897 938.12378655 221.87391852 938.12496415 220.25941852 938.12654433 C215.78135226 938.12963431 211.30330845 938.12642099 206.82524386 938.12226619 C201.96921342 938.11884973 197.1131854 938.12119939 192.25715452 938.12284368 C183.73265202 938.12492364 175.20815648 938.12326308 166.68365479 938.11920547 C154.0078858 938.11318858 141.33212123 938.11286798 128.65635107 938.11374746 C107.33720836 938.11506368 86.01806874 938.11171119 64.69892693 938.10573006 C43.57959923 938.09982013 22.46027281 938.09596555 1.34094429 938.09487724 C0.02952898 938.0948085 -1.28188634 938.09473976 -2.63304151 938.09466894 C-7.95588235 938.09439853 -13.27872318 938.09414362 -18.60156402 938.09391499 C-33.48234121 938.09327551 -48.36311837 938.09231614 -63.24389553 938.09113979 C-64.26046505 938.09105982 -64.26046505 938.09105982 -65.29757133 938.09097823 C-98.28179608 938.08835534 -131.26601999 938.08204722 -164.25024414 938.07543945 C-175.6996053 938.07314784 -187.14896646 938.07087249 -198.59832764 938.06866455 C-199.30839724 938.0685276 -200.01846684 938.06839065 -200.7500537 938.06824955 C-233.74604383 938.06190801 -266.74203411 938.0581807 -299.73802469 938.05512976 C-301.87957935 938.05493169 -304.02113401 938.0547325 -306.16268867 938.05453308 C-320.35462537 938.05321332 -334.54656208 938.05193867 -348.73849879 938.05069422 C-376.97805638 938.04821758 -405.21761395 938.04547589 -433.45717149 938.04255217 C-434.80207862 938.04241293 -436.14698575 938.04227388 -437.49189288 938.04213501 C-526.99459597 938.03289112 -616.49729809 938.01700263 -706 938 C-705.09197897 933.93144224 -703.33033559 930.43821826 -701.4375 926.75 C-701.10814453 926.1003125 -700.77878906 925.450625 -700.43945312 924.78125 C-699.62992435 923.18565706 -698.81544958 921.59257517 -698 920 C-697.34 920 -696.68 920 -696 920 C-695.87109375 919.40864258 -695.7421875 918.81728516 -695.609375 918.20800781 C-694.65916941 914.76503531 -692.77655336 911.82206502 -691 908.75 C-690.17944262 907.31394198 -689.35913733 905.87773989 -688.5390625 904.44140625 C-688.11786133 903.70680176 -687.69666016 902.97219727 -687.26269531 902.21533203 C-686.04382192 900.07688323 -684.84256571 897.92969194 -683.6484375 895.77734375 C-679.83143284 888.90380109 -675.90426309 882.17989256 -671.62109375 875.58203125 C-668.85587261 871.17766698 -666.44932263 866.58480449 -664 862 C-662.74121847 859.71540545 -661.47211364 857.43691146 -660.19921875 855.16015625 C-659.42034081 853.75716114 -658.651486 852.34853743 -657.89453125 850.93359375 C-654.9680144 845.51004888 -651.70866296 840.35251559 -648.29785156 835.22387695 C-645.92609899 831.61272257 -643.92982705 827.94226257 -642.03833008 824.05981445 C-640.23581434 820.4840267 -638.17410895 817.06350861 -636.125 813.625 C-635.68446289 812.88040527 -635.24392578 812.13581055 -634.79003906 811.36865234 C-632.46373447 807.44162456 -630.11488097 803.52893049 -627.75 799.625 C-625.17019749 795.351975 -622.80220554 790.97863573 -620.43359375 786.5859375 C-618.81863543 783.67285193 -617.06210362 780.87973678 -615.26953125 778.07421875 C-613.81552487 775.69859602 -612.5020558 773.26799102 -611.1875 770.8125 C-608.93788994 766.62556508 -606.52767845 762.58752702 -604 758.5625 C-600.76237055 753.37240699 -597.97485037 748.08502968 -595.3046875 742.5859375 C-593.76917711 739.54250073 -591.94901373 736.79358634 -590 734 C-588.65158348 731.67405337 -587.31852087 729.34278082 -586 727 C-585.63100586 726.34443115 -585.26201172 725.6888623 -584.88183594 725.01342773 C-583.34140719 722.27198113 -581.80364519 719.52904901 -580.26757812 716.78515625 C-578.23084908 713.15582306 -576.14586086 709.56627444 -574 706 C-573.18128689 704.5242632 -572.36858689 703.0451713 -571.5625 701.5625 C-569.5455707 697.90908015 -567.33297287 694.46183071 -565 691 C-564.03474481 689.32689101 -563.07057681 687.65305869 -562.125 685.96875 C-560.831001 683.70425175 -559.47929524 681.47894425 -558.125 679.25 C-554.91516808 673.92184071 -551.95239779 668.47372923 -549 663 C-544.60939487 654.89774929 -539.89385632 646.98717928 -535.21044922 639.05224609 C-531.2188024 632.28464159 -527.2529042 625.5065066 -523.453125 618.62890625 C-521.43477994 614.9774379 -519.40873236 611.33042004 -517.375 607.6875 C-516.79806396 606.64577637 -516.79806396 606.64577637 -516.20947266 605.58300781 C-514.71101078 602.9038804 -513.25227475 600.33574801 -511.40625 597.87890625 C-509.61144475 595.48084701 -508.41881955 592.94953701 -507.125 590.25 C-505.04257263 586.00782741 -502.86851979 581.9595567 -500.2734375 578.01171875 C-498.81123851 575.70180316 -497.46444171 573.33300039 -496.11523438 570.95581055 C-494.12923869 567.47292713 -492.09405332 564.01894065 -490.0625 560.5625 C-489.64548828 559.85029297 -489.22847656 559.13808594 -488.79882812 558.40429688 C-486.70053773 554.83363579 -484.56847695 551.29240244 -482.359375 547.7890625 C-480.51282695 544.85312685 -478.80343923 541.88327274 -477.1875 538.8125 C-474.92830943 534.61354169 -472.52063476 530.54741925 -470 526.5 C-467.01344624 521.6977573 -464.22221783 516.84221628 -461.55078125 511.859375 C-459.48934744 508.05844415 -457.33599893 504.31253484 -455.18286133 500.56298828 C-452.10648572 495.20036445 -449.07561275 489.81277176 -446.05737305 484.41723633 C-443.38885115 479.65672878 -440.63301933 474.97041504 -437.6875 470.375 C-435.1184871 466.28160294 -432.8112107 462.06632909 -430.52734375 457.80859375 C-427.18490663 451.66227075 -423.62247801 445.64671532 -420.0625 439.625 C-417.04188843 434.50438075 -414.06099765 429.37160624 -411.19921875 424.16015625 C-407.42848152 417.36791622 -403.48478702 410.70049523 -399.25 404.1875 C-396.69378513 400.22393087 -394.66523676 396.40797967 -393 392 C-392.34 392 -391.68 392 -391 392 C-390.74863281 390.97777344 -390.49726562 389.95554687 -390.23828125 388.90234375 C-389.13264496 385.04183846 -387.35758418 381.95247853 -385.1875 378.5625 C-384.83147705 377.99974365 -384.4754541 377.4369873 -384.10864258 376.85717773 C-383.08003782 375.23327351 -382.04028674 373.61644554 -381 372 C-377.59186394 366.67123844 -377.59186394 366.67123844 -374.5625 361.125 C-371.87316125 355.74632249 -368.6489636 350.6673158 -365.48828125 345.5546875 C-362.15465087 340.11238279 -359.2538056 334.55572682 -356.44140625 328.828125 C-354.00715536 324.05197963 -351.14685065 319.62778802 -348.0625 315.25 C-346.16765675 312.26418639 -344.61995118 309.29552561 -343.0625 306.125 C-340.06137407 300.01691499 -336.65828077 294.41635198 -332.8125 288.8125 C-331.15942486 286.2473834 -330.01231936 283.86823819 -329 281 C-328.34 281 -327.68 281 -327 281 C-326.75765625 279.98292969 -326.5153125 278.96585938 -326.265625 277.91796875 C-325.12082258 273.92019819 -323.10003728 270.70905346 -320.75 267.3125 C-317.15994336 261.94468876 -314.13804976 256.51229687 -311.3359375 250.68359375 C-309.79038626 247.5789338 -308.02611881 244.69415036 -306.14453125 241.78515625 C-304.70776983 239.54420073 -303.40495448 237.23226747 -302.09765625 234.9140625 C-300.76440942 232.58918368 -299.38344837 230.29534542 -298 228 C-294.76310442 222.62139908 -291.65328685 217.18648438 -288.625 211.6875 C-285.23777699 205.58226217 -281.62524728 199.62017053 -277.9453125 193.6875 C-277.41514526 192.83236816 -277.41514526 192.83236816 -276.87426758 191.95996094 C-275.86282266 190.3310439 -274.84752664 188.70451999 -273.83203125 187.078125 C-271.97621802 184.04662851 -271.97621802 184.04662851 -270.48046875 180.953125 C-268.51328452 177.02913747 -266.12159545 173.44875095 -263.71875 169.78125 C-261.95271439 166.92348329 -260.48860146 164.01078039 -259 161 C-257.55030608 158.33745372 -256.05716916 155.70000468 -254.5625 153.0625 C-253.98918945 152.04639648 -253.98918945 152.04639648 -253.40429688 151.00976562 C-252.27217249 149.00500207 -251.13636762 147.00236069 -250 145 C-249.63575928 144.35474365 -249.27151855 143.7094873 -248.89624023 143.04467773 C-247.3242033 140.27073086 -245.71976768 137.58389747 -243.9375 134.9375 C-241.98291151 132.11088187 -241.98291151 132.11088187 -240.6875 129.3125 C-238.63261311 125.27883315 -236.19800516 121.56537629 -233.71875 117.78125 C-231.91145156 115.05427974 -231.91145156 115.05427974 -230.86328125 111.99609375 C-228.09651504 107.5472265 -224.26958326 105.90567312 -219.6875 103.5625 C-218.78394775 103.08369385 -217.88039551 102.6048877 -216.94946289 102.11157227 C-214.30977157 100.72027261 -211.65879208 99.35438077 -209 98 C-208.33935547 97.66323242 -207.67871094 97.32646484 -206.99804688 96.97949219 C-204.22557643 95.57483524 -201.44209768 94.19421681 -198.65234375 92.82421875 C-193.23573883 90.14577883 -187.90923297 87.29128257 -182.57006836 84.46264648 C-177.68904939 81.87857762 -172.78017611 79.36762703 -167.82421875 76.9296875 C-163.20202534 74.64816607 -158.63597588 72.27868799 -154.09399414 69.8425293 C-145.62494943 65.30646561 -137.04414086 61.11910718 -128.32763672 57.08300781 C-123.97764419 55.05903394 -119.64523226 52.9980998 -115.3125 50.9375 C-114.4253833 50.51686279 -113.5382666 50.09622559 -112.62426758 49.6628418 C-108.62267618 47.7583649 -104.63752289 45.83349852 -100.6953125 43.80859375 C-100.05295654 43.47931885 -99.41060059 43.15004395 -98.7487793 42.81079102 C-97.06665786 41.94172895 -95.39048622 41.06117699 -93.71484375 40.1796875 C-91 39 -91 39 -87 39 C-85.515625 40.6796875 -85.515625 40.6796875 -84.25 42.875 C-83.60804688 43.95394531 -83.60804688 43.95394531 -82.953125 45.0546875 C-82 47 -82 47 -82 49 C-81.34 49 -80.68 49 -80 49 C-80 49.66 -80 50.32 -80 51 C-79.01 51.33 -78.02 51.66 -77 52 C-77 52.66 -77 53.32 -77 54 C-76.41355713 54.28157959 -75.82711426 54.56315918 -75.22290039 54.85327148 C-73.17967163 55.90731272 -71.34032293 57.06836054 -69.43359375 58.34765625 C-63.73599573 61.94606981 -57.49541668 64.13275572 -51.22070312 66.51757812 C-38.83455227 71.38079927 -29.12705575 78.67617623 -22 90 C-21.64035156 90.5465625 -21.28070312 91.093125 -20.91015625 91.65625 C-14.4436643 102.78349653 -14.32067824 116.62277665 -16 129 C-16.17096191 129.60094482 -16.34192383 130.20188965 -16.51806641 130.82104492 C-17.12774491 133.57757006 -17.12977762 136.14956419 -17.1328125 138.97265625 C-17.13410156 140.11927734 -17.13539063 141.26589844 -17.13671875 142.44726562 C-17.13285156 143.64029297 -17.12898438 144.83332031 -17.125 146.0625 C-17.12886719 147.25939453 -17.13273437 148.45628906 -17.13671875 149.68945312 C-17.13542969 150.83478516 -17.13414062 151.98011719 -17.1328125 153.16015625 C-17.13168457 154.20824463 -17.13055664 155.25633301 -17.12939453 156.33618164 C-17.11499005 159.10474232 -17.11499005 159.10474232 -16 162 C-15.34 162.33 -14.68 162.66 -14 163 C-14.144375 162.44054687 -14.28875 161.88109375 -14.4375 161.3046875 C-16.65404865 151.73042874 -17.03847142 142.29032149 -14.5 132.75 C-10.53230949 116.9559083 -12.69906134 101.99900696 -20.78125 87.890625 C-23.75544206 83.48151571 -27.04013962 79.56387434 -31 76 C-31.71893433 75.31115723 -31.71893433 75.31115723 -32.45239258 74.60839844 C-36.9747508 70.44850638 -41.48910939 68.19354195 -47.1875 66 C-48.87734842 65.31507589 -50.56615434 64.62757407 -52.25390625 63.9375 C-53.06746582 63.6075 -53.88102539 63.2775 -54.71923828 62.9375 C-63.57016296 59.29935498 -71.53828188 55.24495668 -78 48 C-78 47.34 -78 46.68 -78 46 C-78.99 45.67 -79.98 45.34 -81 45 C-82.16796875 43.15234375 -82.16796875 43.15234375 -83.1875 40.9375 C-83.53167969 40.20402344 -83.87585938 39.47054687 -84.23046875 38.71484375 C-84.48441406 38.14894531 -84.73835937 37.58304688 -85 37 C-79.03484158 33.97057399 -73.05288042 30.97581682 -67 28.125 C-66.13375 27.71507812 -65.2675 27.30515625 -64.375 26.8828125 C-62 26 -62 26 -58 26 C-56.0625 28.625 -56.0625 28.625 -54 32 C-51.01618655 36.08053488 -51.01618655 36.08053488 -47 39 C-47 39.66 -47 40.32 -47 41 C-46.26523438 41.28359375 -45.53046875 41.5671875 -44.7734375 41.859375 C-42.29994827 42.87664099 -39.98933933 44.00561088 -37.625 45.25 C-33.32477897 47.4354636 -28.93048203 49.25664686 -24.4375 51 C-16.35291118 54.16743938 -8.71634495 57.21184037 -3 64 C-2.67 64.99 -2.34 65.98 -2 67 C-1.01 67.33 -0.02 67.66 1 68 C3.41421185 71.08702498 5.18024633 74.53791865 7 78 C7.495 78.92941406 7.99 79.85882812 8.5 80.81640625 C14.116249 93.05408517 13.47164905 107.21741481 10 120 C7.79630142 134.57284545 10.11950632 149.56825328 18.46875 161.96484375 C27.06956911 173.39603446 35.6664812 178.779411 48.8125 183.8125 C60.11624123 188.15059072 69.39163882 193.37046673 77 203 C77.4640625 203.55945313 77.928125 204.11890625 78.40625 204.6953125 C87.87484006 217.07211236 89.18727223 231.39519838 87.34277344 246.40698242 C87.15596391 247.80203298 86.96651121 249.19673216 86.77441406 250.59106445 C84.51165154 267.46195562 85.43538643 282.41065856 95 297 C96.81651924 299.2396442 98.68256471 301.36215071 100.6796875 303.44140625 C102 305 102 305 102 307 C102.55171875 307.26296875 103.1034375 307.5259375 103.671875 307.796875 C106.29094198 309.15035257 108.74448523 310.69630089 111.25 312.25 C118.46901539 316.51172072 126.10057584 319.26327057 134 322 C134 321.01 134 320.02 134 319 C133.46375 318.87625 132.9275 318.7525 132.375 318.625 C116.73404017 314.50895794 103.55257211 306.91412128 94.625 293.125 C87.38062113 279.94967072 85.70776031 267.02611399 88.86572266 252.39038086 C92.18978196 236.04936784 90.92334596 219.54633781 81.6796875 205.3359375 C73.31025518 193.69658743 63.29614798 186.86136443 49.87768555 182.15209961 C34.25494488 176.64206684 22.74651639 167.38910773 15.5 152.25 C10.67930045 141.59089766 10.95237604 129.10632582 13 117.75 C15.78295634 101.37492357 14.88930334 85.64631971 5.71484375 71.359375 C2.05433944 66.32305472 -1.79574285 61.46950477 -7 58 C-7 57.34 -7 56.68 -7 56 C-7.66644531 55.73960937 -8.33289062 55.47921875 -9.01953125 55.2109375 C-13.33428825 53.45789075 -17.58378375 51.55852707 -21.84033203 49.66967773 C-25.64772534 47.99101456 -29.45120474 46.45360706 -33.375 45.0625 C-42.39463774 41.49096559 -50.44726904 33.86378379 -56 26 C-56 25.01 -56 24.02 -56 23 C-55.443125 22.75765625 -54.88625 22.5153125 -54.3125 22.265625 C-50.52776067 20.6034084 -46.7888301 18.91552943 -43.125 17 C-40.08553762 15.45329133 -37.0308706 14.25212834 -33.8125 13.125 C-26.25479509 10.45941943 -19.09393761 6.95752572 -11.87109375 3.50390625 C-10.90300781 3.04886719 -9.93492187 2.59382812 -8.9375 2.125 C-8.08027344 1.71507812 -7.22304687 1.30515625 -6.33984375 0.8828125 C-4 0 -4 0 0 0 Z M-114 53 C-114 59.08388071 -110.90043334 62.4979744 -107 67 C-97.67679498 75.49417367 -86.984251 80.21644813 -75.25 84.4375 C-62.02255612 89.45151302 -53.24052147 99.55678899 -47.2265625 112.10546875 C-42.5145176 123.22529445 -42.22509114 133.35978073 -44.5 145.0625 C-47.85009134 162.86757877 -46.04216081 178.05175726 -36.5859375 193.8671875 C-35.80089844 194.92292969 -35.80089844 194.92292969 -35 196 C-34.34 196 -33.68 196 -33 196 C-32.79375 196.721875 -32.5875 197.44375 -32.375 198.1875 C-30.52471012 201.97218384 -28.39759562 203.52258653 -25 206 C-24.34 206 -23.68 206 -23 206 C-23 206.66 -23 207.32 -23 208 C-16.65688823 211.86340717 -10.3384785 214.68585762 -3.3125 217 C3.05045968 219.1309193 8.0118778 221.39996968 13 226 C13.71800781 226.59167969 14.43601562 227.18335938 15.17578125 227.79296875 C18.60945443 230.65334659 21.20031838 232.83710009 23 237 C23.66 237 24.32 237 25 237 C25.2475 237.804375 25.495 238.60875 25.75 239.4375 C26.98302967 242.95163456 28.4665263 246.21631615 30.09765625 249.55859375 C33.87876965 259.78887893 32.37400778 272.05563768 31 282.6875 C28.7493103 300.34828169 30.41486917 315.92734568 41.25 330.625 C51.08800474 342.65158895 63.08592548 347.84145923 77.23242188 353.4296875 C90.2729512 358.81913136 99.08529543 367.79919015 105 380.5625 C110.38098575 393.67865277 108.34855454 408.75187717 106.453125 422.453125 C104.77542853 435.58543871 106.93476658 447.23992909 113 459 C113.99 459 114.98 459 116 459 C115.1930593 454.35168534 113.63452276 450.2024614 111.9375 445.81640625 C110.2734024 440.81717972 109.84481209 435.99748317 109.8125 430.75 C109.79832031 429.71359375 109.78414062 428.6771875 109.76953125 427.609375 C109.95688135 424.6752819 110.35037439 422.18724299 110.98046875 419.33984375 C114.85232318 400.95243305 112.65928767 384.402716 102.75 368.5625 C101.40085012 366.49336762 101.40085012 366.49336762 100 365 C99.34 365 98.68 365 98 365 C97.74992187 364.42121094 97.49984375 363.84242188 97.2421875 363.24609375 C92.5352232 354.73507339 83.65142703 351.2038327 75 348 C72.85113303 347.09046758 70.70520961 346.17394481 68.5625 345.25 C65.03782248 343.73462844 61.78825326 342.63252142 58 342 C58 341.34 58 340.68 58 340 C57.278125 339.566875 56.55625 339.13375 55.8125 338.6875 C52.70842615 336.82505569 50.54871525 334.54871525 48 332 C47.34 332 46.68 332 46 332 C45.71769531 331.40832031 45.43539062 330.81664062 45.14453125 330.20703125 C44.11305199 328.21800128 42.97602793 326.51326434 41.6875 324.6875 C32.09777498 309.21836024 32.56833939 293.59139059 36.3125 276.47265625 C39.39995144 260.87751799 34.16893213 245.3145285 25.51171875 232.31640625 C16.58877585 219.95913114 2.15175385 214.67631279 -11.5546875 209.39453125 C-17.49406968 206.99049561 -21.6643463 204.7586443 -26 200 C-26.52335937 199.49210938 -27.04671875 198.98421875 -27.5859375 198.4609375 C-31.81301935 194.11909324 -34.63867204 189.35588779 -37.375 184 C-37.72087158 183.33572998 -38.06674316 182.67145996 -38.4230957 181.98706055 C-40.74341084 177.25989037 -41.60291527 173.25332366 -42 168 C-42.06703125 167.11957031 -42.1340625 166.23914063 -42.203125 165.33203125 C-42.32893366 158.56981594 -41.48342569 152.15882547 -40.4375 145.5 C-37.87614043 128.8599446 -40.27610624 115.4932955 -49 101 C-49.61875 99.9275 -50.2375 98.855 -50.875 97.75 C-59.83040589 86.1606512 -73.75879979 80.09034311 -87.125 75.0625 C-97.07541567 71.09492919 -105.20314004 64.58431082 -110.6015625 55.22265625 C-111.29378906 54.12244141 -111.29378906 54.12244141 -112 53 C-112.66 53 -113.32 53 -114 53 Z M-142 68 C-140.87956016 76.37381353 -133.62371499 83.10752948 -127.39453125 88.3515625 C-121.30534169 92.89718504 -114.42042354 95.31847712 -107.39428711 98.02954102 C-100.29472311 100.79775316 -93.28539145 103.64213668 -87.875 109.171875 C-86.19778572 111.23270005 -86.19778572 111.23270005 -84 111 C-83.34 112.65 -82.68 114.3 -82 116 C-81.34 116 -80.68 116 -80 116 C-79.7215625 116.72832031 -79.443125 117.45664062 -79.15625 118.20703125 C-78.07786343 120.81191774 -76.84239695 123.21143245 -75.5 125.6875 C-69.07128541 138.58285669 -70.35012038 152.58218871 -72.546875 166.453125 C-74.69716503 183.28470561 -72.07377827 198.23496231 -61.8203125 211.90625 C-52.49982447 222.61352345 -41.56555517 228.65396464 -28.3125 233.5 C-19.47146785 236.82727016 -13.2844731 241.04513325 -7.41015625 248.4609375 C-6.71212891 249.22277344 -6.71212891 249.22277344 -6 250 C-5.34 250 -4.68 250 -4 250 C-3.731875 250.721875 -3.46375 251.44375 -3.1875 252.1875 C-2.09047814 254.98686399 -2.09047814 254.98686399 -0.5625 257.32421875 C7.90918036 271.83197136 5.96751289 288.839082 2.6796875 304.5546875 C0.01839524 318.04468619 4.58363921 331.37386802 11.9375 342.6875 C14.44673369 346.30841951 17.01046103 349.76133279 20 353 C20.66 353 21.32 353 22 353 C22.33 353.99 22.66 354.98 23 356 C28.87980756 360.59831104 35.75849437 363.1667064 42.69140625 365.72265625 C63.34893928 373.69787857 63.34893928 373.69787857 67 381 C67.66 381 68.32 381 69 381 C69.28230469 381.59039063 69.56460938 382.18078125 69.85546875 382.7890625 C70.89035602 384.78819628 72.03111444 386.53013871 73.3125 388.375 C80.92735793 400.74914414 83.4626554 414.95428999 80.53710938 429.26416016 C80.26930664 430.36896729 80.26930664 430.36896729 79.99609375 431.49609375 C78.8421074 436.27018383 78.61593075 440.85021641 78.625 445.75 C78.62588623 446.61890869 78.62677246 447.48781738 78.62768555 448.38305664 C78.79631976 457.62712211 80.64944156 466.26205328 86 474 C86.66 474 87.32 474 88 474 C87.62327807 469.66769777 86.79722531 466.38979848 84.9765625 462.43359375 C82.69177895 456.83669593 82.46649452 451.92316746 82.625 445.9375 C82.62693359 444.5443457 82.62693359 444.5443457 82.62890625 443.12304688 C82.69465586 437.91786938 83.29933985 433.23981797 84.54150391 428.19555664 C85.33529686 424.39439581 85.38300227 420.62189957 85.375 416.75 C85.37258301 415.51382935 85.37258301 415.51382935 85.37011719 414.25268555 C85.16443813 403.90118133 81.94732735 395.01120339 77 386 C76.34 386 75.68 386 75 386 C74.5978125 385.12794922 74.5978125 385.12794922 74.1875 384.23828125 C67.90997261 372.40596811 55.76758666 366.47138272 43.8125 361.875 C36.85403523 359.17778703 30.94728094 356.5228307 25 352 C24.34 352 23.68 352 23 352 C22.731875 351.360625 22.46375 350.72125 22.1875 350.0625 C21.11332248 347.66868314 21.11332248 347.66868314 18 347 C17.27095914 345.35965807 16.61344757 343.68698082 16 342 C15.00664799 340.32936253 14.00568242 338.66324401 13 337 C4.95535621 323.14706127 6.29587365 308.07424847 8.546875 292.703125 C10.43632391 277.26176665 7.86630388 265.77579206 1 252 C0.34 252 -0.32 252 -1 252 C-1.2475 251.278125 -1.495 250.55625 -1.75 249.8125 C-4.51792641 243.58466558 -9.3215471 239.57668787 -15 236 C-15.66 236 -16.32 236 -17 236 C-17 235.34 -17 234.68 -17 234 C-22.57897664 231.32033405 -28.06701447 228.91110821 -34 227.125 C-43.69986935 223.988289 -50.70561042 218.90833562 -57 211 C-57.66 211 -58.32 211 -59 211 C-59.28101563 210.41734375 -59.56203125 209.8346875 -59.8515625 209.234375 C-60.93698866 207.03669348 -60.93698866 207.03669348 -62.1484375 205.203125 C-69.15634017 194.04404431 -71.57496799 180.44144949 -68.91625977 167.64428711 C-65.51593513 151.14922255 -64.94032809 134.99198733 -73.75 120.02734375 C-75.41399152 117.59232168 -77.14057828 115.28787908 -79 113 C-79.6290625 112.17242188 -80.258125 111.34484375 -80.90625 110.4921875 C-88.91359668 100.9610547 -99.80373382 96.57430491 -111.046875 92.04296875 C-123.22524121 87.10893432 -123.22524121 87.10893432 -127.875 82.9375 C-128.42929687 82.45152344 -128.98359375 81.96554687 -129.5546875 81.46484375 C-131 80 -131 80 -133 77 C-133.66 77 -134.32 77 -135 77 C-135.268125 76.2575 -135.53625 75.515 -135.8125 74.75 C-136.95276751 72.10938051 -138.09380306 70.14447156 -140 68 C-140.66 68 -141.32 68 -142 68 Z M-169 84 C-168.38694952 87.98482812 -166.37862774 90.85407298 -164 94 C-163.48824219 94.69480469 -162.97648438 95.38960937 -162.44921875 96.10546875 C-154.42511027 106.08835317 -143.37845284 110.7005943 -131.63549805 114.85009766 C-123.74362191 117.69501283 -117.62042617 121.7719602 -112 128 C-111.49597656 128.55816406 -110.99195313 129.11632812 -110.47265625 129.69140625 C-100.81202786 140.62752103 -97.01712676 153.40453398 -97.625 167.796875 C-98.00793326 173.13339369 -99.16907294 178.2385543 -100.3125 183.4609375 C-102.81159575 196.32560084 -100.35965714 210.67182711 -93.3125 221.875 C-92.24830292 223.28116272 -91.13965299 224.65426597 -90 226 C-89.23300781 226.92554688 -88.46601562 227.85109375 -87.67578125 228.8046875 C-82.94761597 234.26416165 -78.4998116 238.79806329 -72 242 C-71.15695312 242.41636719 -70.31390625 242.83273437 -69.4453125 243.26171875 C-64.83130977 245.43801182 -60.20608774 247.30236261 -55.375 248.9375 C-50.67580803 250.58019748 -46.89363834 252.81252363 -42.875 255.73046875 C-40.9216075 257.17615005 -40.9216075 257.17615005 -38 258 C-37.28954312 259.31052404 -36.62881727 260.64840425 -36 262 C-34.92013878 263.373627 -33.81367077 264.7265768 -32.6875 266.0625 C-22.63812928 278.93825624 -21.14177711 293.06041915 -23.04516602 308.83496094 C-23.13081818 309.49588745 -23.21647034 310.15681396 -23.30471802 310.83776855 C-25.81917729 330.70934937 -24.69137287 346.75973686 -12.125 363.375 C-3.44788726 373.60159716 8.41187205 379.03205981 20.8125 383.5625 C31.71653971 387.66801616 41.55268561 394.91643159 47.28515625 405.3359375 C47.63900391 406.15964844 47.63900391 406.15964844 48 407 C48.99 407 49.98 407 51 407 C49.41353118 397.79430594 39.57238288 389.88217099 32.43676758 384.56713867 C27.95656295 381.68582082 23.0157207 379.90863694 18.0625 378 C11.18606775 375.34036931 4.94490173 372.64931691 -1.06469727 368.33203125 C-2.98054827 366.94158112 -2.98054827 366.94158112 -5.18237305 365.94262695 C-7.56805658 364.7054041 -7.93795537 363.42560192 -9 361 C-9.90901474 359.76516371 -10.82642538 358.53648464 -11.75 357.3125 C-19.49602365 345.67438565 -22.50535968 332.82063555 -21 319 C-20.32410246 315.74652708 -19.51289857 312.550292 -18.6875 309.33203125 C-15.47910365 293.78224669 -19.37810961 278.20800231 -28 265 C-28.66 265 -29.32 265 -30 265 C-30.165 264.319375 -30.33 263.63875 -30.5 262.9375 C-32.74428129 258.54244913 -36.15790268 256.0120972 -40 253 C-40.63679688 252.48179687 -41.27359375 251.96359375 -41.9296875 251.4296875 C-48.11985743 246.82921102 -55.05675417 244.67237223 -62.3046875 242.296875 C-66 241 -66 241 -69 239 C-69.99 239 -70.98 239 -72 239 C-72 238.34 -72 237.68 -72 237 C-72.99 236.525625 -73.98 236.05125 -75 235.5625 C-83.00372358 230.96116904 -88.05693936 223.1207105 -92 215 C-92.35690918 214.27466064 -92.71381836 213.54932129 -93.08154297 212.80200195 C-96.1373545 205.97505101 -96.54723222 200.0400502 -96.375 192.625 C-96.37371094 191.57828125 -96.37242187 190.5315625 -96.37109375 189.453125 C-96.29987549 183.04348186 -95.64693574 176.94348663 -94.4609375 170.64501953 C-92.10856706 157.1463006 -96.22547014 142.15326124 -104 131 C-114.43108465 117.70472142 -126.383622 111.82383042 -141.84179688 106 C-146.54886479 104.17284399 -150.14630871 102.35233728 -154 99 C-154.66 99 -155.32 99 -156 99 C-156.66 97.68 -157.32 96.36 -158 95 C-158.66 95 -159.32 95 -160 95 C-160.66 93.35 -161.32 91.7 -162 90 C-162.66 90 -163.32 90 -164 90 C-164.268125 89.195625 -164.53625 88.39125 -164.8125 87.5625 C-165.204375 86.716875 -165.59625 85.87125 -166 85 C-166.99 84.67 -167.98 84.34 -169 84 Z M-196 99 C-196 103.52638833 -195.45241923 104.15690926 -192.6875 107.5 C-192.07261719 108.2528125 -191.45773437 109.005625 -190.82421875 109.78125 C-190.22222656 110.5134375 -189.62023437 111.245625 -189 112 C-188.51144531 112.7528125 -188.02289062 113.505625 -187.51953125 114.28125 C-187.01808594 114.8484375 -186.51664063 115.415625 -186 116 C-184.68 116 -183.36 116 -182 116 C-183.03228985 112.90313046 -184.15725493 111.79464079 -186.4609375 109.60546875 C-189.07887775 106.87457169 -191.27881786 103.81540141 -193.546875 100.79296875 C-194.02640625 100.20128906 -194.5059375 99.60960937 -195 99 C-195.33 99 -195.66 99 -196 99 Z M-166 125 C-163.48980082 128.19479896 -161.02997381 129.49901436 -157.3125 130.875 C-151.4137845 133.08265536 -145.78962147 136.11672217 -141.37109375 140.68359375 C-140.07634173 142.2308582 -140.07634173 142.2308582 -138 142 C-138.75623949 137.50184821 -140.94245959 135.6693002 -144.34375 132.81640625 C-150.47439337 128.62412807 -158.43030384 124.41552252 -166 125 Z M-131 152 C-130.33795284 156.10469236 -129.07572882 159.90152236 -127.71875 163.81640625 C-126.11368773 168.69265521 -125.80819212 173.18988723 -125.8125 178.3125 C-125.81185547 179.10922119 -125.81121094 179.90594238 -125.81054688 180.72680664 C-125.86672061 187.14018788 -126.59625617 193.25446478 -127.55078125 199.59765625 C-128.18981564 204.43764717 -128.2237451 209.1316152 -128 214 C-127.99355469 214.72058594 -127.98710938 215.44117188 -127.98046875 216.18359375 C-127.48343413 226.21632964 -122.24421949 237.97397989 -115 245 C-114.34 245 -113.68 245 -113 245 C-112.76539063 245.57492187 -112.53078125 246.14984375 -112.2890625 246.7421875 C-106.70973988 256.5144556 -93.61186271 260.57456838 -83.71826172 264.28564453 C-70.16781072 269.50411723 -59.56614551 278.88837482 -53.54296875 292.2265625 C-48.9878108 303.64727551 -48.15735172 313.49622491 -50.5 325.4375 C-53.67388088 343.51644979 -52.93641149 359.60900933 -42.0625 375.125 C-40.73897092 376.77504944 -39.38712174 378.40303862 -38 380 C-37.45730469 380.65226563 -36.91460938 381.30453125 -36.35546875 381.9765625 C-28.63382724 390.50606431 -17.90360408 394.71438988 -7.3190918 398.515625 C-2.70052514 400.19972637 0.96516318 402.20243187 5 405 C5.66 405 6.32 405 7 405 C7 405.66 7 406.32 7 407 C8.16629452 408.06860995 9.38505932 409.0802998 10.625 410.0625 C15.1018472 413.90769327 18.16583071 417.83462667 21 423 C21.48855469 423.86496094 21.97710938 424.72992187 22.48046875 425.62109375 C28.50397192 438.32612985 27.4154756 454.29515501 24.45629883 467.74194336 C22.28241448 478.49970493 24.04492173 489.8681637 28 500 C29.8764197 502.89557583 29.8764197 502.89557583 32 505 C32.66 505 33.32 505 34 505 C33.55637485 501.56190507 32.49268936 498.83813632 31 495.75 C28.89058884 491.1261096 28.19752062 487.04965767 28 482 C27.96003906 481.24203125 27.92007813 480.4840625 27.87890625 479.703125 C27.64589696 471.3147906 29.11390791 463.09502952 30.546875 454.85546875 C32.92100294 439.8943694 27.71353968 424.83961317 19.0625 412.6875 C16.36462602 409.25067345 13.53382831 406.57005695 10 404 C9.34 404 8.68 404 8 404 C8 403.34 8 402.68 8 402 C0.39930818 397.69730952 -7.03607139 393.83338979 -15.3125 391 C-28.36747453 386.39696368 -37.37127106 377.09731505 -43.875 365 C-49.11541216 353.6369514 -48.957832 341.36801194 -47 329.1875 C-43.87161866 309.34462405 -46.82613873 293.37204612 -58.44921875 276.80078125 C-58.96097656 276.20652344 -59.47273437 275.61226562 -60 275 C-60.66 275 -61.32 275 -62 275 C-62 274.34 -62 273.68 -62 273 C-68.86807368 265.28035923 -78.45321977 261.94051554 -87.78125 258.17578125 C-93.00057984 256.05689791 -97.99472788 253.57731685 -103 251 C-104.33247882 250.33162703 -105.6655274 249.66438324 -107 249 C-107 248.34 -107 247.68 -107 247 C-108.6436814 245.31066078 -110.3142876 243.64740076 -112 242 C-120.33425482 232.88440879 -124.55968911 220.62886686 -124.3125 208.4375 C-124.31572266 207.63892578 -124.31894531 206.84035156 -124.32226562 206.01757812 C-124.2814362 201.46324087 -123.68841836 197.58398239 -122.46948242 193.16870117 C-119.43666262 179.15906088 -121.25661513 164.52342904 -128 152 C-128.99 152 -129.98 152 -131 152 Z M-222 171 C-222.928125 172.7015625 -222.928125 172.7015625 -223.875 174.4375 C-226.50209377 179.17377477 -229.24532549 183.83734559 -232 188.5 C-235.82197986 194.95873734 -235.82197986 194.95873734 -239.5 201.5 C-242.32502467 206.66575939 -245.35333184 211.7125965 -248.34765625 216.78125 C-250.44170327 220.33175361 -252.5219854 223.88305902 -254.5 227.5 C-257.32502467 232.66575939 -260.35333184 237.7125965 -263.34765625 242.78125 C-265.44170327 246.33175361 -267.5219854 249.88305902 -269.5 253.5 C-272.32060909 258.6576852 -275.3430036 263.69741462 -278.33447266 268.75708008 C-280.96369324 273.21212082 -283.51464678 277.69904899 -285.99609375 282.23828125 C-286.90229334 283.82853812 -287.91461272 285.35716726 -288.9375 286.875 C-290.68540627 289.52334284 -292.19074785 292.14548156 -293.6875 294.9375 C-296.55042298 300.26268244 -299.61808901 305.44135587 -302.75268555 310.60913086 C-306.06204431 316.06835965 -309.22851203 321.59832228 -312.3125 327.1875 C-316.03235648 333.89916765 -319.94641404 340.49837266 -323.828125 347.1171875 C-326.9294381 352.4163877 -329.98473278 357.73319907 -332.94970703 363.10986328 C-334.23101683 365.41574437 -335.56984998 367.68186852 -336.9375 369.9375 C-337.44152344 370.7728125 -337.94554687 371.608125 -338.46484375 372.46875 C-339.47624324 374.13640106 -340.489226 375.80309308 -341.50390625 377.46875 C-345.18944353 383.55036765 -348.6240501 389.74214166 -352 396 C-356.39547582 404.10296412 -356.39547582 404.10296412 -358.9375 407.875 C-361.33574373 411.50870262 -363.35647979 415.27661424 -365.40234375 419.1171875 C-367.42437252 422.7657382 -369.68145728 426.24188334 -371.99609375 429.7109375 C-373.29086494 432.66321733 -372.99606766 433.96035691 -372 437 C-371.14687612 438.78184102 -370.22472902 440.53166327 -369.25 442.25 C-368.7034375 443.22195313 -368.156875 444.19390625 -367.59375 445.1953125 C-366.80484375 446.58363281 -366.80484375 446.58363281 -366 448 C-365.24928932 449.37461212 -364.49924996 450.74959115 -363.75 452.125 C-360.82135839 457.39275146 -357.73352346 462.5677365 -354.66650391 467.75561523 C-352.03681504 472.21106516 -349.4856355 476.69853263 -347.00390625 481.23828125 C-346.09770666 482.82853812 -345.08538728 484.35716726 -344.0625 485.875 C-342.31459373 488.52334284 -340.80925215 491.14548156 -339.3125 493.9375 C-336.83706971 498.54368041 -334.21077624 503.03057735 -331.5 507.5 C-328.38565076 512.63870839 -325.43180038 517.82730595 -322.59375 523.125 C-320.64709481 526.63661329 -318.58063478 530.06660927 -316.5 533.5 C-313.38586281 538.63884025 -310.43180675 543.82729406 -307.59375 549.125 C-305.64709282 552.63661688 -303.58056951 556.06656688 -301.5 559.5 C-298.41015385 564.600759 -295.47186706 569.74756501 -292.65234375 575.00390625 C-290.54921785 578.81737566 -288.34142607 582.56405298 -286.125 586.3125 C-281.17975111 594.67715054 -276.34668412 603.10098969 -271.55175781 611.55273438 C-269.95304639 614.36955885 -268.35155568 617.18479192 -266.75 620 C-266.24227051 620.89686523 -265.73454102 621.79373047 -265.21142578 622.71777344 C-262.62305281 627.26475326 -259.92699366 631.65997492 -257 636 C-256.05962538 637.65340592 -255.14238893 639.32020907 -254.25 641 C-247.86399711 652.83939645 -241.01335524 664.41425415 -234.22045898 676.02294922 C-230.40272828 682.55896994 -226.66218206 689.13141945 -222.98730469 695.74853516 C-220.88627385 699.50519417 -218.66424917 703.14568877 -216.3125 706.75 C-213.97280782 710.34252506 -211.98293406 713.9490152 -210.125 717.8125 C-207.56518003 723.1032509 -204.5511149 727.89962512 -201.31689453 732.78833008 C-198.34016935 737.33857447 -195.94231276 742.03161335 -193.59375 746.9375 C-191.76682369 750.44806429 -189.68139344 753.70271223 -187.5 757 C-184.09258617 762.15048031 -181.26397583 767.35969492 -178.59375 772.9375 C-176.76682298 776.44806564 -174.68138615 779.70270243 -172.5 783 C-169.06610308 788.19080761 -166.12282454 793.43444372 -163.484375 799.0859375 C-161.92584772 802.14557264 -160.16817289 804.9934192 -158.32910156 807.88964844 C-156.1431671 811.36048192 -154.07475741 814.89946296 -152 818.4375 C-151.56284668 819.18104736 -151.12569336 819.92459473 -150.67529297 820.69067383 C-148.04894571 825.17036543 -145.49481088 829.68174838 -143.00390625 834.23828125 C-142.09770666 835.82853812 -141.08538728 837.35716726 -140.0625 838.875 C-138.31459373 841.52334284 -136.80925215 844.14548156 -135.3125 846.9375 C-132.83706649 851.54368641 -130.21070376 856.03052886 -127.5 860.5 C-124.34513674 865.70732248 -121.33806948 870.96288576 -118.45703125 876.328125 C-115.75375186 881.28534511 -112.86034746 886.13239117 -110 891 C-109.57464917 891.95940593 -109.14929833 892.91881186 -108.71105808 893.9072907 C-105.7915935 900.21997685 -105.7915935 900.21997685 -100.34644043 904.10769796 C-97.02656726 904.51772418 -93.88533593 904.5429385 -90.54127502 904.4430542 C-89.28572703 904.4533073 -88.03017903 904.4635604 -86.73658413 904.47412419 C-83.2618426 904.50089633 -79.79155899 904.45307427 -76.31738579 904.39278746 C-72.56764914 904.34087684 -68.81815599 904.35850816 -65.06816101 904.36761475 C-58.5748153 904.37390186 -52.08291843 904.33631255 -45.58993721 904.26876068 C-36.2024854 904.17115891 -26.81573286 904.13997621 -17.42782866 904.12490478 C-2.19636181 904.09865265 13.03433308 904.01882625 28.26538086 903.90527344 C43.05928692 903.79509448 57.85298318 903.71016906 72.6472168 903.65917969 C73.55939838 903.65602701 74.47157996 903.65287432 75.41140341 903.64962611 C79.98763345 903.63396545 84.56386498 903.618801 89.1400975 903.60388327 C127.0939388 903.47951839 165.04691842 903.26819322 203 903 C202.09111244 901.10042499 201.17251969 899.20549214 200.25 897.3125 C199.48429687 895.72888672 199.48429687 895.72888672 198.703125 894.11328125 C197.05220718 891.09543376 195.20338914 888.62991676 193 886 C191.9453125 884.11328125 191.9453125 884.11328125 191.125 882.3125 C189.1406211 878.17186686 186.82399024 874.29090397 184.4375 870.37109375 C183.26010036 868.42902424 182.11657335 866.4772653 181 864.5 C179.42660008 861.71729271 177.78357725 858.98278531 176.125 856.25 C172.91515846 850.92182475 169.95280933 845.47350022 167 840 C163.72092023 833.94905249 163.72092023 833.94905249 160.0625 828.125 C158.31459373 825.47665716 156.80925215 822.85451844 155.3125 820.0625 C152.83706971 815.45631959 150.21077624 810.96942265 147.5 806.5 C144.38565076 801.36129161 141.43180038 796.17269405 138.59375 790.875 C136.64709481 787.36338671 134.58063478 783.93339073 132.5 780.5 C129.38586281 775.36115975 126.43180675 770.17270594 123.59375 764.875 C121.64709282 761.36338312 119.58056951 757.93343312 117.5 754.5 C114.41015385 749.399241 111.47186706 744.25243499 108.65234375 738.99609375 C106.54921785 735.18262434 104.34142607 731.43594702 102.125 727.6875 C97.67756613 720.1648796 93.31917266 712.59711619 89 705 C82.11576186 692.90035457 75.17732621 680.83829294 68.09326172 668.85449219 C66.46765912 666.0969939 64.85894379 663.3297425 63.25 660.5625 C61.17780165 657.00045412 59.0747176 653.46087166 56.9375 649.9375 C53.79031069 644.71450498 50.89429906 639.36601452 48 634 C44.38047301 627.3206667 40.53215131 620.78314645 36.66650391 614.24438477 C34.03681504 609.78893484 31.4856355 605.30146737 29.00390625 600.76171875 C28.09770666 599.17146188 27.08538728 597.64283274 26.0625 596.125 C23.06595276 591.58477691 20.57403057 586.78889408 18 582 C14.72132575 575.94882041 14.72132575 575.94882041 11.0625 570.125 C9.31459373 567.47665716 7.80925215 564.85451844 6.3125 562.0625 C3.83706971 557.45631959 1.21077624 552.96942265 -1.5 548.5 C-4.61434924 543.36129161 -7.56819962 538.17269405 -10.40625 532.875 C-12.35290718 529.36338312 -14.41943049 525.93343312 -16.5 522.5 C-19.58591187 517.40573576 -22.52192333 512.26635536 -25.3359375 507.015625 C-27.92437012 502.32485039 -30.6700914 497.72817307 -33.39819336 493.11767578 C-35.47655788 489.6012886 -37.54038798 486.08448605 -39.5 482.5 C-43.10581687 475.91490891 -46.99160283 469.48631961 -50.80712891 463.02148438 C-55.5449058 454.99266884 -60.18136534 446.91540658 -64.73461914 438.78100586 C-67.21503314 434.36156116 -69.77982596 430.00553469 -72.4140625 425.67578125 C-74.46533363 422.21489276 -76.41689584 418.70169704 -78.375 415.1875 C-81.81343333 409.02116098 -85.42985695 403.00806553 -89.1640625 397.015625 C-91.41443794 393.31926364 -93.47166924 389.53974879 -95.515625 385.7265625 C-97.61674332 381.8671399 -99.85400489 378.09184047 -102.08203125 374.3046875 C-103.86941767 371.22499522 -105.61212915 368.12492023 -107.34399414 365.01391602 C-110.86935813 358.68166243 -114.49133078 352.4792921 -118.4921875 346.4296875 C-120.18752572 343.69782125 -121.56190788 340.87618425 -123 338 C-124.73312475 334.8946976 -126.52194661 331.82246472 -128.3125 328.75 C-128.80451904 327.90244141 -129.29653809 327.05488281 -129.8034668 326.18164062 C-132.27372299 321.93408958 -134.76448243 317.70151833 -137.3125 313.5 C-139.24126948 310.31643446 -141.05091065 307.0915454 -142.8125 303.8125 C-145.24843271 299.2922784 -147.83970007 294.88988108 -150.5 290.5 C-153.58592582 285.40574298 -156.5219234 280.26635521 -159.3359375 275.015625 C-161.92437012 270.32485039 -164.6700914 265.72817307 -167.39819336 261.11767578 C-169.47655788 257.6012886 -171.54038798 254.08448605 -173.5 250.5 C-175.84506947 246.21589782 -178.32954103 242.01755584 -180.8125 237.8125 C-184.87731994 230.92575986 -188.87780657 224.00755945 -192.82958984 217.05517578 C-194.21230141 214.62721041 -195.60010446 212.2021885 -196.98828125 209.77734375 C-197.51631348 208.85469727 -198.0443457 207.93205078 -198.58837891 206.98144531 C-199.62549826 205.16941572 -200.66291506 203.35755632 -201.70068359 201.54589844 C-204.47750178 196.69085593 -207.22034391 191.82015876 -209.90917969 186.91577148 C-211.46552884 184.18240717 -213.242813 181.60743878 -215 179 C-215.69298632 177.73215002 -216.38041258 176.46124658 -217.0625 175.1875 C-218.68396648 171.74622387 -218.68396648 171.74622387 -222 171 Z M-8 177 C-6.79907248 183.51932083 -1.25070007 188.33672088 4 192 C9.95676212 195.57436389 16.05525838 198.37423564 22.5 200.9375 C29.19374586 203.67720547 35.26557201 206.52168481 41 211 C42.299375 211.86625 42.299375 211.86625 43.625 212.75 C47.41070576 216.33645809 50.16631263 220.64203056 53 225 C53.51949219 225.78375 54.03898437 226.5675 54.57421875 227.375 C61.37788974 239.90121069 60.8563636 253.30617936 58.08129883 266.78344727 C55.95811934 277.63424965 55.78113354 288.62633702 60 299 C60.26683594 299.7321875 60.53367187 300.464375 60.80859375 301.21875 C67.62240016 318.41982574 80.75092512 327.8228619 97 335 C98.78480392 335.72545193 100.57542348 336.43701024 102.375 337.125 C116.15109111 342.45544731 125.51785894 351.13955052 131.55859375 364.59375 C132.03425781 365.7178125 132.50992188 366.841875 133 368 C133.36222656 368.8559375 133.72445312 369.711875 134.09765625 370.59375 C137.71609445 380.69171707 136.46571373 391.44347064 134.5 401.75 C131.74988627 416.21105495 132.46375827 430.47316182 140.5625 443.1875 C141.70064717 444.79712907 142.84607698 446.4016426 144 448 C144.51691406 448.88300781 145.03382813 449.76601563 145.56640625 450.67578125 C147.31322725 453.50782074 149.36132615 454.98958183 152 457 C152.721875 457.78375 153.44375 458.5675 154.1875 459.375 C161.75864149 466.44139873 170.47159264 469.41785175 180.24804688 472.28857422 C192.33947465 475.98916152 203.4370559 484.06915053 210 495 C210.4434375 495.72832031 210.886875 496.45664063 211.34375 497.20703125 C217.06978433 507.51056395 218.01263994 519.45781656 216.50390625 531.0078125 C215.85593069 536.71140221 215.77850012 542.38935076 215.75 548.125 C215.729375 549.17042969 215.70875 550.21585938 215.6875 551.29296875 C215.65694439 557.33534039 216.12262594 561.65414188 219 567 C219.66 567 220.32 567 221 567 C222.17474375 563.47576875 221.44400067 561.65187265 220.49804688 558.15869141 C219.7282081 554.82196863 219.73659219 551.60313949 219.75 548.1875 C219.75362549 547.1054126 219.75362549 547.1054126 219.75732422 546.00146484 C219.83645316 540.32000683 220.43289308 534.75976859 221.125 529.125 C221.96381691 522.01174737 222.16801036 515.93137928 220 509 C219.690625 507.96746094 219.38125 506.93492187 219.0625 505.87109375 C214.27577867 491.79347928 204.696206 479.8601677 191.5 472.875 C185.86676662 470.2096594 180.05684685 468.24667041 174.16503906 466.25170898 C165.88218223 463.3804561 158.91782705 459.59415014 153 453 C152.13375 452.175 151.2675 451.35 150.375 450.5 C148.12037352 448.12670897 146.67263548 445.7877258 145 443 C144.34 443 143.68 443 143 443 C142.9175 442.195625 142.835 441.39125 142.75 440.5625 C142.09925389 437.47145596 141.41018123 435.78751227 139.9765625 433.08203125 C137.29912388 427.165542 137.48450759 421.52110182 137.625 415.125 C137.62693359 413.46404297 137.62693359 413.46404297 137.62890625 411.76953125 C137.69565882 405.45770472 138.2981735 399.53047531 139.54150391 393.34521484 C142.05502488 380.4885149 138.41766957 366.74291717 131.81640625 355.625 C122.43447631 342.06659802 111.34455518 335.75580147 96.35742188 329.98193359 C86.29128139 326.05020412 76.07102947 321.14205894 71 311 C70.34 311 69.68 311 69 311 C68.5978125 309.6696875 68.5978125 309.6696875 68.1875 308.3125 C67.16946312 305.06955591 67.16946312 305.06955591 65.53125 302.75 C59.42855895 291.79006506 60.73085871 278.48120114 62.48046875 266.63671875 C65.01274402 248.91079183 64.41560009 233.96043061 54 219 C51.18762384 215.45277717 48.22148867 212.17701052 45 209 C44.56816406 208.49597656 44.13632813 207.99195313 43.69140625 207.47265625 C41.02767567 205.15342662 37.89929 203.7315186 34.75 202.1875 C34.04488281 201.8363916 33.33976562 201.4852832 32.61328125 201.12353516 C27.82745405 198.78074052 22.97972606 196.76311977 18 194.875 C8.63502075 191.26846113 2.73486984 185.99186606 -4.1171875 178.7578125 C-5.81434687 176.77252456 -5.81434687 176.77252456 -8 177 Z M145 327 C145.54509383 331.01891214 147.55521591 332.94691015 150.3125 335.8125 C153.92307874 339.69329721 156.63566861 343.27133722 159 348 C159.99 348 160.98 348 162 348 C160.62617116 340.70049977 154.41815276 332.91548324 148.875 328.1875 C147.08829533 326.82164931 147.08829533 326.82164931 145 327 Z M165 365 C162.90982004 367.09017996 163.30774338 371.29519312 163 374.1875 C162.8347374 375.70197679 162.66809465 377.21630368 162.5 378.73046875 C162.4184668 379.46869873 162.33693359 380.20692871 162.25292969 380.9675293 C162.04698374 382.62245213 161.76152474 384.26732569 161.453125 385.90625 C160.79841242 390.37635661 160.77554671 394.80031322 160.75 399.3125 C160.729375 400.21162109 160.70875 401.11074219 160.6875 402.03710938 C160.64035825 410.1867396 162.80369476 416.71147483 166.1875 424.0625 C166.53167969 424.81660156 166.87585937 425.57070313 167.23046875 426.34765625 C167.61138672 427.16556641 167.61138672 427.16556641 168 428 C168.66 428 169.32 428 170 428 C170.21398438 428.86496094 170.42796875 429.72992187 170.6484375 430.62109375 C172.2491588 434.622897 174.56874024 437.13810098 177.625 440.0625 C178.16842041 440.58908203 178.71184082 441.11566406 179.27172852 441.65820312 C186.23418366 448.27475549 192.37078373 451.29883788 201.625 453.9765625 C213.61092993 457.61118477 223.72968786 462.53818751 231.58984375 472.4609375 C232.05519531 472.96882813 232.52054688 473.47671875 233 474 C233.66 474 234.32 474 235 474 C235.2475 474.825 235.495 475.65 235.75 476.5 C236.68978258 479.13139122 237.64392146 481.31153011 238.9375 483.75 C244.66799766 495.14660771 245.32415545 506.53881345 243 519.0625 C240.40245579 533.14194252 241.65249663 547.37098281 249.1875 559.8125 C258.49469791 573.18536895 268.64227026 581.59817287 284.2890625 586.33203125 C299.67426117 590.98842206 310.47494078 597.72183332 319 612 C325.29894628 625.45889961 326.18469199 638.03167068 323.9375 652.5625 C322.85567961 659.88972319 323.06186187 666.66794955 324 674 C324.10183594 674.82113281 324.20367188 675.64226562 324.30859375 676.48828125 C326.37071289 688.45707584 334.37827186 697.92769571 343 706 C343.66 706 344.32 706 345 706 C345.33 706.99 345.66 707.98 346 709 C351.45294174 713.13180146 358.04287716 715.19216095 364.49609375 717.203125 C367 718 367 718 369 719 C370.99960012 719.039992 373.00047242 719.04346799 375 719 C375 718.34 375 717.68 375 717 C374.40050537 716.77860352 373.80101074 716.55720703 373.18334961 716.32910156 C370.43234385 715.30905081 367.68494291 714.27960651 364.9375 713.25 C363.99455078 712.90195313 363.05160156 712.55390625 362.08007812 712.1953125 C349.79625113 707.57282708 342.88117365 701.43975372 335 691 C334.23623047 690.09894531 334.23623047 690.09894531 333.45703125 689.1796875 C324.95311164 676.45800615 326.14067964 660.3385555 328.5390625 646.03515625 C330.55814657 632.74000094 327.74295105 618.12642546 320 607 C319.50886719 606.26652344 319.01773437 605.53304687 318.51171875 604.77734375 C309.64784762 592.44408153 298.11292495 586.19893817 284.0625 581.625 C274.47226532 578.38133415 266.82177536 574.69636195 260 567 C259.37222656 566.31421875 258.74445313 565.6284375 258.09765625 564.921875 C245.71631177 550.6268404 245.94371634 536.13472264 247 518 C247.26167463 515.64703649 247.61993061 513.33818688 248 511 C249.09803074 494.98917972 244.45292423 481.19507826 234 469 C231.60414714 466.35412766 231.60414714 466.35412766 229 464 C228.51144531 463.51789063 228.02289062 463.03578125 227.51953125 462.5390625 C221.14008464 456.56874904 213.41814216 453.71490873 205.1875 451.125 C188.19755405 445.61654096 178.37553129 437.3803561 169.25 422.0625 C164.43688625 410.2703713 163.38212146 400.10369286 165.87475586 387.69897461 C167.32904425 380.10959107 167.27966462 372.69595591 167 365 C166.34 365 165.68 365 165 365 Z M55 430 C50.85228502 448.88691641 47.32124037 471.80592571 58 489 C59.32 489 60.64 489 62 489 C61.71253906 488.29875 61.42507813 487.5975 61.12890625 486.875 C59.97663011 483.9404836 58.94012721 480.98882029 57.9375 478 C57.59589844 476.989375 57.25429687 475.97875 56.90234375 474.9375 C54.19765097 466.13261269 54.45145804 457.81525099 56.48828125 448.90234375 C57.58588523 442.67700208 57.70269376 436.30602186 58 430 C57.01 430 56.02 430 55 430 Z M117 460 C116.67 460.66 116.34 461.32 116 462 C123.78853789 475.19469949 134.70355389 482.93725332 149.0625 487.6875 C149.92166016 487.98205078 150.78082031 488.27660156 151.66601562 488.58007812 C156.40964921 490.19269611 161.16987528 491.66958573 166 493 C166 493.66 166 494.32 166 495 C166.721875 495.433125 167.44375 495.86625 168.1875 496.3125 C171.3579342 498.21476052 173.47949303 500.29506569 176 503 C176.474375 503.48082031 176.94875 503.96164062 177.4375 504.45703125 C186.73136949 514.40437594 190.34701366 526.21838911 190.1875 539.5 C190.1865332 541.02947266 190.1865332 541.02947266 190.18554688 542.58984375 C190.1566707 547.52446148 189.8884539 552.13760887 189 557 C188.06497403 573.86642992 190.77806058 588.04235373 202.25195312 601.0390625 C204.44115142 603.4480369 206.6217687 605.77332265 209 608 C209.66 608 210.32 608 211 608 C211.33 608.99 211.66 609.98 212 611 C218.16149316 615.66868484 225.74753803 617.68348881 233 620 C247.79139456 624.82556134 258.94027854 632.98324776 266.3125 646.875 C272.37624307 659.81098522 271.40055052 672.821151 270.23046875 686.77734375 C268.95290152 704.64163126 271.83466517 719.35358673 283.3125 733.4375 C291.16885211 741.67138848 300.36842567 746.52864448 311.05053711 750.03979492 C326.38335214 755.13555168 338.22288909 762.26562996 346.9375 776.375 C353.85643675 790.23740874 352.57717096 805.43929607 350.875 820.3125 C349.5247999 832.49862803 351.31091615 842.93614633 357 854 C359.02837908 855.86065665 359.02837908 855.86065665 361 857 C361.33 856.34 361.66 855.68 362 855 C361.06148059 852.63737698 361.06148059 852.63737698 359.6875 850 C354.88321403 839.73751135 354.0085899 829.53151864 355.484375 818.3203125 C357.89158001 799.85414222 356.55923172 783.78711472 345.625 768.4375 C334.41498108 754.60306193 319.89747575 748.43455539 303.25 743.1875 C291.22242758 738.77976945 283.61465241 729.07011076 278 718 C272.13794982 705.19854987 272.97956505 691.18780806 275.5390625 677.6484375 C278.07679842 663.06720905 272.29550485 648.80206844 264.4921875 636.65234375 C261.46180436 632.40822077 258.21942645 629.06867378 254 626 C253.34 626 252.68 626 252 626 C252 625.34 252 624.68 252 624 C245.0995942 620.1844815 238.30858388 617.31468542 230.8125 614.9375 C220.39005308 611.60365527 212.69638636 608.03821104 205.8125 599.1875 C205.214375 598.465625 204.61625 597.74375 204 597 C203.34 597 202.68 597 202 597 C201.896875 596.4225 201.79375 595.845 201.6875 595.25 C201.13629157 592.95470626 201.13629157 592.95470626 199.625 591.26953125 C192.13097031 580.80310997 192.00017739 567.30759077 193 555 C193.16886719 554.01644531 193.33773437 553.03289062 193.51171875 552.01953125 C196.20016105 535.39420407 193.4156419 521.35609501 185 507 C184.34 507 183.68 507 183 507 C182.01 504.525 182.01 504.525 181 502 C180.34 502 179.68 502 179 502 C178.75507812 501.4121875 178.51015625 500.824375 178.2578125 500.21875 C176.78512242 497.6209613 175.23975904 496.31270728 172.875 494.5 C172.15054688 493.9328125 171.42609375 493.365625 170.6796875 492.78125 C164.73108195 488.82707488 158.44302528 486.3377221 151.6875 484.125 C142.4464221 480.9689438 133.55580082 477.54910398 127 470 C126.34 469.360625 125.68 468.72125 125 468.0625 C123.33266882 466.34306472 121.82577133 464.60148097 120.3125 462.75 C119.1678125 461.38875 119.1678125 461.38875 118 460 C117.67 460 117.34 460 117 460 Z M-395 468 C-399.03429343 473.32211349 -402.24700043 479.1454905 -405.390625 485.01953125 C-408.08616061 490.01150618 -410.93529727 494.91585886 -413.76074219 499.83496094 C-415.19293321 502.33706299 -416.61621487 504.84413579 -418.0390625 507.3515625 C-418.56935059 508.28436035 -419.09963867 509.2171582 -419.64599609 510.17822266 C-420.69482294 512.02332779 -421.74208919 513.86932111 -422.78759766 515.71630859 C-425.37652799 520.26382844 -428.07558193 524.65749127 -431 529 C-431.93941366 530.67494358 -432.85666389 532.36253393 -433.75 534.0625 C-436.02918004 538.30430729 -438.45355217 542.41304842 -441 546.5 C-443.99302922 551.31265494 -446.78762488 556.18041866 -449.46875 561.171875 C-453.64472193 568.88463948 -458.08962555 576.45074779 -462.51953125 584.01953125 C-463.45539063 585.61921753 -463.45539063 585.61921753 -464.41015625 587.2512207 C-465.6595858 589.38496802 -466.91083169 591.51765301 -468.1640625 593.64916992 C-473.43147043 601.36163588 -473.43147043 601.36163588 -476 610 C-476.66 610 -477.32 610 -478 610 C-478.27972656 610.59425781 -478.55945313 611.18851563 -478.84765625 611.80078125 C-481.65060359 617.59594246 -484.79958645 622.99123019 -488.3515625 628.359375 C-490.10286262 631.16477519 -491.5374582 634.03439257 -493 637 C-494.36498047 639.53827387 -495.77319464 642.05143626 -497.1875 644.5625 C-497.58259766 645.26503906 -497.97769531 645.96757813 -498.38476562 646.69140625 C-500.83476795 651.01909036 -503.37000078 655.27829785 -506 659.5 C-511.00547077 667.5384887 -515.56876996 675.81542059 -520.16162109 684.09375 C-524.37314296 691.67838073 -528.6527039 699.13765242 -533.37890625 706.41796875 C-536.14391342 710.82199222 -538.55470639 715.41334758 -541 720 C-544.61943064 726.68970629 -548.47882808 733.2319247 -552.34667969 739.77978516 C-554.44115921 743.33071669 -556.5217035 746.88254354 -558.5 750.5 C-563.60310904 759.80778339 -569.1192375 768.89903316 -574.60742188 777.98339844 C-578.58301469 784.56521321 -582.36698822 791.22262715 -586 798 C-586.87160713 799.5852036 -587.74646007 801.16862812 -588.625 802.75 C-588.98851562 803.40484375 -589.35203125 804.0596875 -589.7265625 804.734375 C-593.05670165 810.65916244 -596.47882511 816.52468822 -599.9375 822.375 C-602.89123737 827.38184094 -605.8043786 832.39943516 -608.59375 837.5 C-611.1042949 841.96319093 -613.73392383 846.35732076 -616.33886719 850.76586914 C-618.91680193 855.13607771 -621.43004487 859.53214623 -623.87109375 863.98046875 C-626.74487594 869.12145627 -629.84108132 874.13504669 -632.94921875 879.13671875 C-640.78010348 890.97229314 -640.78010348 890.97229314 -646 904 C-480.01 904 -314.02 904 -143 904 C-146.78564515 894.53588713 -152.2003573 885.89780921 -157.38330078 877.14428711 C-159.60144154 873.39469341 -161.78539248 869.63589952 -163.875 865.8125 C-165.14965501 863.480814 -166.44688128 861.33688584 -167.9375 859.125 C-169.68540627 856.47665716 -171.19074785 853.85451844 -172.6875 851.0625 C-175.16293029 846.45631959 -177.78922376 841.96942265 -180.5 837.5 C-183.61434924 832.36129161 -186.56819962 827.17269405 -189.40625 821.875 C-191.35290519 818.36338671 -193.41936522 814.93339073 -195.5 811.5 C-198.61413719 806.36115975 -201.56819325 801.17270594 -204.40625 795.875 C-206.35290519 792.36338671 -208.41936522 788.93339073 -210.5 785.5 C-213.61413719 780.36115975 -216.56819325 775.17270594 -219.40625 769.875 C-221.35290718 766.36338312 -223.41943049 762.93343312 -225.5 759.5 C-228.58984615 754.399241 -231.52813294 749.25243499 -234.34765625 743.99609375 C-236.45078215 740.18262434 -238.65857393 736.43594702 -240.875 732.6875 C-245.32243387 725.1648796 -249.68082734 717.59711619 -254 710 C-260.88906079 697.89187834 -267.8321057 685.82104577 -274.91992188 673.828125 C-278.7964167 667.26682454 -282.6253394 660.6846123 -286.33496094 654.02758789 C-289.83161907 647.75455976 -293.40973721 641.60711056 -297.39453125 635.625 C-298.68972183 633.50731613 -299.80355188 631.4337263 -300.89453125 629.2109375 C-303.01791371 624.88817464 -305.41051075 620.76053779 -307.875 616.625 C-308.53580566 615.50810791 -308.53580566 615.50810791 -309.20996094 614.36865234 C-311.53626553 610.44162456 -313.88511903 606.52893049 -316.25 602.625 C-319.33457985 597.50720413 -322.16381733 592.25826705 -325 587 C-328.61952699 580.3206667 -332.46784869 573.78314645 -336.33349609 567.24438477 C-338.96318496 562.78893484 -341.5143645 558.30146737 -343.99609375 553.76171875 C-344.90229334 552.17146188 -345.91461272 550.64283274 -346.9375 549.125 C-348.68540627 546.47665716 -350.19074785 543.85451844 -351.6875 541.0625 C-354.16293381 536.45631304 -356.78930991 531.96947881 -359.5 527.5 C-362.58128256 522.4138516 -365.5154915 517.28423623 -368.3203125 512.0390625 C-370.98905949 507.21049237 -373.82589254 502.48045847 -376.66186523 497.74853516 C-377.07895752 497.04776855 -377.4960498 496.34700195 -377.92578125 495.625 C-378.30130127 494.99851562 -378.67682129 494.37203125 -379.0637207 493.7265625 C-380 492 -380 492 -381 489 C-381.66 489 -382.32 489 -383 489 C-383.35384766 487.75863281 -383.35384766 487.75863281 -383.71484375 486.4921875 C-385.23224401 482.3689175 -387.27285721 478.85787735 -389.5625 475.125 C-389.97435547 474.43664062 -390.38621094 473.74828125 -390.81054688 473.0390625 C-391.84097714 471.33910553 -392.91648316 469.66662278 -394 468 C-394.33 468 -394.66 468 -395 468 Z M90 476 C90 480.98337847 90.78857647 482.68168616 94.125 486.3125 C95.07375 487.199375 96.0225 488.08625 97 489 C97.59039063 489.56074219 98.18078125 490.12148438 98.7890625 490.69921875 C106.60557517 497.87733099 114.78257252 501.37787015 124.69116211 504.77197266 C146.48563296 512.2942776 146.48563296 512.2942776 151.0625 521.02734375 C151.371875 521.67832031 151.68125 522.32929687 152 523 C152.474375 523.46664062 152.94875 523.93328125 153.4375 524.4140625 C160.9367145 532.02576522 163.49801984 544.67504997 164.3125 554.9375 C164.17227152 558.48011421 163.55260055 561.9390217 163 565.4375 C160.19574015 584.59653081 162.17630506 599.97056122 174 616 C182.70008037 627.54128309 194.27324907 633.03327744 207.8125 636.9609375 C211.69669874 638.22711013 215.18989177 639.92059249 218.78125 641.8515625 C221.13549634 643.07013367 223.52643583 644.0506391 226 645 C226 645.66 226 646.32 226 647 C228.33333333 649.66666667 228.33333333 649.66666667 231 652 C231.66 652 232.32 652 233 652 C233.28101563 652.58652344 233.56203125 653.17304687 233.8515625 653.77734375 C234.91044442 655.82667644 236.08210493 657.6560974 237.375 659.5625 C245.10138252 671.79212914 246.41498595 685.3475284 244 699.375 C240.99972542 717.61579979 244.58525072 733.07910519 255.25 748.1875 C255.8275 748.785625 256.405 749.38375 257 750 C257.66 750 258.32 750 259 750 C259.23460937 750.5878125 259.46921875 751.175625 259.7109375 751.78125 C261.30315138 754.52178783 263.01172079 755.7200575 265.625 757.5 C266.44226562 758.0671875 267.25953125 758.634375 268.1015625 759.21875 C273.91633068 762.79224635 279.69844581 765.33776282 286.20605469 767.38183594 C301.94104511 772.36508626 312.75734024 779.9984866 320.5625 795.00390625 C323.34163783 800.93325997 325.12486216 805.77876316 325.1328125 812.359375 C325.13410156 813.39320313 325.13539063 814.42703125 325.13671875 815.4921875 C325.13285156 816.56726562 325.12898438 817.64234375 325.125 818.75 C325.12886719 819.80960938 325.13273437 820.86921875 325.13671875 821.9609375 C325.12954113 827.74609728 324.81680455 833.276085 324 839 C323.08486089 851.30158144 325.9048829 862.32752223 332 873 C332.99 873 333.98 873 335 873 C334.5585081 869.57843781 333.50471539 866.78638661 332.0625 863.6875 C327.25901565 853.03249834 326.8525345 842.47360141 329 831 C331.87278255 815.14727291 329.27892549 800.50392754 320.41796875 786.99609375 C317.86419298 783.37419411 317.86419298 783.37419411 315 780 C314.34 780 313.68 780 313 780 C312.63068359 779.11248047 312.63068359 779.11248047 312.25390625 778.20703125 C306.83729712 768.67312422 290.97751326 764.0564357 280.96484375 761.10546875 C280.13082031 760.88503906 279.29679687 760.66460938 278.4375 760.4375 C273.40965123 759.05227636 269.93478955 756.33145515 266 753 C265.030625 752.2575 264.06125 751.515 263.0625 750.75 C261 749 261 749 260 747 C259.34 747 258.68 747 258 747 C257.7525 746.29875 257.505 745.5975 257.25 744.875 C256.08932218 741.93211514 256.08932218 741.93211514 254.125 739.375 C251.27427524 734.84737832 249.63356838 730.07709985 248 725 C247.80019531 724.39027344 247.60039063 723.78054688 247.39453125 723.15234375 C246.78801299 719.84351643 246.8564333 716.53879011 246.875 713.1875 C246.87113281 712.50107422 246.86726563 711.81464844 246.86328125 711.10742188 C246.86938582 707.8811549 247.01995127 704.86477473 247.4921875 701.6640625 C248.1627146 696.82595156 248.22339476 692.06623512 248.25 687.1875 C248.270625 686.25357422 248.29125 685.31964844 248.3125 684.35742188 C248.39428944 669.62509864 242.17986532 657.69968426 232.14453125 647.1484375 C223.55084459 638.5390975 213.57380356 634.48833282 202.3125 630.5 C188.03613934 625.36938953 177.41091706 617.58611273 170.5 603.5625 C166.6135222 594.31839178 164.76390632 584.12914118 166.49243164 574.15991211 C169.2150413 557.21006276 168.7726707 539.84650469 159.21875 525.28515625 C156.18060252 521.1743295 152.74866515 517.47437258 149 514 C148.45085938 513.44570312 147.90171875 512.89140625 147.3359375 512.3203125 C141.35117119 506.58183287 134.77149573 504.07472069 127.05761719 501.30175781 C113.33752052 496.36831931 100.15238601 491.3434617 92.75 477.6953125 C92.5025 477.13585937 92.255 476.57640625 92 476 C91.34 476 90.68 476 90 476 Z M63 493 C62.67 493.66 62.34 494.32 62 495 C72.70054201 508.67438991 81.95690653 515.54995475 98.15625 521.54296875 C98.86595947 521.80601807 99.57566895 522.06906738 100.30688477 522.34008789 C101.69580994 522.85176366 103.08684932 523.35774753 104.48022461 523.85717773 C108.26813616 525.24006608 111.57085088 526.89645662 115 529 C115.66 529 116.32 529 117 529 C117 529.66 117 530.32 117 531 C118.16629452 532.06860995 119.38505932 533.0802998 120.625 534.0625 C125.11881695 537.9143431 128.06161427 541.89674318 131 547 C131.44939941 547.73420166 131.89879883 548.46840332 132.36181641 549.22485352 C137.91882368 560.01694919 136.46876988 571.95042752 136.1875 583.75 C136.12450587 587.08217222 136.06902927 590.41416582 136.02497864 593.74664307 C135.99608048 595.80817036 135.95564424 597.86958016 135.9016571 599.93060303 C135.68385096 612.52175048 140.15503758 624.07842988 148 634 C150.54976564 636.48687905 153.24427546 638.74624759 156 641 C156.54914063 641.5053125 157.09828125 642.010625 157.6640625 642.53125 C164.55872507 648.44995577 173.59095201 650.93065793 182 654 C192.54080834 657.91969757 199.9618436 662.03748692 207 671 C207.54011719 671.67933594 208.08023438 672.35867188 208.63671875 673.05859375 C210 675 210 675 211 678 C211.66 678 212.32 678 213 678 C213.12246094 678.52851562 213.24492188 679.05703125 213.37109375 679.6015625 C213.84401089 681.40510985 214.39076083 683.18954501 214.97265625 684.9609375 C218.7314734 696.73587009 218.70794463 706.87469583 216.453125 718.921875 C214.10038627 734.90427261 218.26591976 749.56295348 227 763 C229.22877725 765.64573501 229.22877725 765.64573501 232 768 C232.61359375 768.61617187 233.2271875 769.23234375 233.859375 769.8671875 C242.69197375 778.40966439 253.54911858 781.90348092 264.95385742 785.74169922 C269.88314293 787.45559641 274.04605688 789.53982385 278.23828125 792.703125 C279.99619654 794.07840356 279.99619654 794.07840356 282.16796875 795.05859375 C284.5822273 796.2991829 284.88338655 797.55740808 286 800 C287.30745749 801.68704193 288.64172029 803.35360035 290 805 C290.804375 806.1446875 290.804375 806.1446875 291.625 807.3125 C292.07875 807.869375 292.5325 808.42625 293 809 C293.66 809 294.32 809 295 809 C294.11175753 801.42944111 288.17892618 795.81089614 282.671875 790.94140625 C274.14534867 784.60297856 264.13085696 781.1544041 254.25 777.5 C240.1324827 772.07942228 231.34205367 764.140206 224.484375 750.56640625 C219.69369107 739.05615775 219.84906856 728.90079034 221.4375 716.7578125 C222.80307164 706.04770418 223.20349879 695.12087049 219 685 C218.70996094 684.24589844 218.41992188 683.49179688 218.12109375 682.71484375 C215.82095843 677.10405341 212.87719435 671.68586631 209 667 C208.34 667 207.68 667 207 667 C206.72929688 666.39929687 206.45859375 665.79859375 206.1796875 665.1796875 C200.46984198 654.62970802 185.52778394 650.70613432 175 647 C162.49971927 642.52980858 153.72203329 636.59338019 147 625 C146.29875 623.96875 145.5975 622.9375 144.875 621.875 C138.88427144 611.07658591 137.98724725 598.77649452 140 586.875 C142.80797357 569.39177769 140.91054646 553.96510385 130.69140625 539.19921875 C127.75228764 535.37768578 124.44671714 532.35943788 120.75 529.3125 C118 527 118 527 117 525 C114.80700587 523.80737169 112.63969216 522.72703083 110.375 521.6875 C109.7056543 521.37554688 109.03630859 521.06359375 108.34667969 520.7421875 C103.72154725 518.64044429 99.10256451 516.99961183 94.25 515.5 C82.99944973 511.89888244 73.15858399 505.62338241 66.6875 495.5625 C66.130625 494.716875 65.57375 493.87125 65 493 C64.34 493 63.68 493 63 493 Z M36 510 C37.84285168 515.89712537 42.16810155 522.10057318 47 526 C48.32 526 49.64 526 51 526 C49.43474036 522.32206751 47.14603892 519.78787492 44.4375 516.875 C40.09722222 512.19444444 40.09722222 512.19444444 39 510 C38.01 510 37.02 510 36 510 Z M69 533 C68.67 533.99 68.34 534.98 68 536 C68.54527344 536.24234375 69.09054687 536.4846875 69.65234375 536.734375 C71.24017453 537.44007757 72.82736901 538.14721282 74.4140625 538.85546875 C76.09164798 539.59796504 77.77374682 540.33037761 79.4609375 541.05078125 C83.35023581 542.72408401 86.6729234 544.33833872 90 547 C90.66 547 91.32 547 92 547 C92 547.66 92 548.32 92 549 C92.99 549.33 93.98 549.66 95 550 C95.66 549.34 96.32 548.68 97 548 C88.75582585 540.00913846 80.04166265 535.88962661 69 533 Z M105 560 C103.64208692 564.07373923 105.289149 566.31218634 107 570 C109.78861823 576.31036215 110.44650525 581.38394504 110.3125 588.25 C110.30484619 589.17876953 110.29719238 590.10753906 110.28930664 591.06445312 C110.19009675 596.94919297 109.53337999 602.47773101 108.39453125 608.25390625 C106.44597881 621.81660291 111.06111713 636.07737592 119 647 C127.87257277 658.55374785 138.1880654 664.89327485 152 669 C167.86384846 674.30676781 178.84275871 682.33513463 186.703125 697.2265625 C191.51426992 708.14841448 191.62663496 718.87580685 190.5 730.625 C188.53901776 750.62535335 188.53901776 750.62535335 195 769 C196.07116897 771.30788223 197.03086686 773.64639094 198 776 C198.66 776 199.32 776 200 776 C200.2475 776.721875 200.495 777.44375 200.75 778.1875 C205.6570597 789.22838431 217.54018838 794.36130093 228 799 C231.04604765 800.09421129 234.11038454 801.08074523 237.1953125 802.05859375 C249.92033606 806.32980639 259.34671366 814.36721004 266 826 C266.38929688 826.63421875 266.77859375 827.2684375 267.1796875 827.921875 C272.49828111 837.31676299 273.17089513 849.568593 271.515625 860.07421875 C269.58040667 874.8082674 268.79103087 891.00874152 277 904 C279.06101567 905.85688607 279.06101567 905.85688607 281 907 C281.4445147 903.44388239 280.96230889 901.93241594 279.1875 898.75 C273.82366802 888.54141655 273.5761809 877.16003995 275.42578125 866.07421875 C278.08343327 848.96852612 276.17405744 833.83192777 266.4375 819.3125 C263.85705395 815.93025234 261.16836877 812.8515319 258 810 C257.52433594 809.53207031 257.04867187 809.06414062 256.55859375 808.58203125 C249.93104168 802.36969931 241.71556119 798.75780291 233.125 796.0625 C223.0397641 792.85536848 212.61456256 788.61484264 206 780 C205.67 779.34 205.34 778.68 205 778 C204.34 778 203.68 778 203 778 C202.7525 777.34 202.505 776.68 202.25 776 C201.0228274 772.88579721 201.0228274 772.88579721 199.125 769.6875 C192.91013664 757.23432096 192.39682873 745.15731873 194.53515625 731.609375 C196.53061733 716.11520662 195.10713776 702.03781279 186 689 C185.4740625 688.22785156 184.948125 687.45570313 184.40625 686.66015625 C176.02734832 675.09964332 165.00614164 668.94971458 151.72045898 664.56835938 C135.2190852 659.09973105 125.32309222 651.50603482 117 636 C116.58105469 635.2471875 116.16210938 634.494375 115.73046875 633.71875 C110.68096546 622.72760504 111.89021797 607.67855721 114 596 C114.78838355 582.62780217 113.27423166 571.3857539 106 560 C105.67 560 105.34 560 105 560 Z M227 580 C229.9310354 588.41396728 236.74175807 593.4574707 244.4609375 597.42578125 C250.06973174 599.92064226 255.80162068 602.08223712 261.56323242 604.19726562 C273.97925688 608.7559611 273.97925688 608.7559611 278.75 613.1875 C281.00384533 615.499268 281.00384533 615.499268 284 616 C284.2475 616.556875 284.495 617.11375 284.75 617.6875 C285.93703599 620.07616534 285.93703599 620.07616534 287.8125 622.125 C297.86096921 635.33155954 299.65140811 650.43800671 297.54296875 666.4765625 C297.19140502 668.43419077 296.83005027 670.39009642 296.45703125 672.34375 C293.94312404 686.95449275 299.24917087 701.10946574 307.50390625 713.0078125 C309.46677405 715.62155291 311.57547178 717.80637923 314 720 C314.57363281 720.55429688 315.14726563 721.10859375 315.73828125 721.6796875 C323.23355461 728.67928146 331.44226217 731.89663415 341.0625 735 C350.12443182 737.93283812 357.65335965 740.59907878 363.66796875 748.3203125 C365.09977316 750.21338178 365.09977316 750.21338178 367.5625 752.375 C377.39392424 762.96268764 379.67326274 776.39214973 379.27734375 790.3046875 C379.029328 795.55666047 378.23286461 800.68139791 377.390625 805.8671875 C375.93362682 817.55231292 379.33533711 829.84267344 385 840 C386.32 840 387.64 840 389 840 C388.72414063 839.45859375 388.44828125 838.9171875 388.1640625 838.359375 C387.77992188 837.58078125 387.39578125 836.8021875 387 836 C386.36191406 834.70835937 386.36191406 834.70835937 385.7109375 833.390625 C380.05834386 820.10207152 380.78334158 805.0740217 383 791 C383.9280483 778.13225338 381.50918039 766.1659458 375 755 C374.34 755 373.68 755 373 755 C372.773125 754.29875 372.54625 753.5975 372.3125 752.875 C368.26596258 744.01115613 359.73899795 737.80988656 351 734 C347.0226959 732.64308054 342.99614899 731.4471698 338.97021484 730.24389648 C333.75715784 728.65500295 329.11424216 726.83768412 324.49609375 723.8828125 C323.00244338 722.83060037 323.00244338 722.83060037 321 723 C321 722.34 321 721.68 321 721 C319.40963415 719.46982639 319.40963415 719.46982639 317.375 717.875 C309.1146437 710.7946946 303.47389061 701.91594823 301.1875 691.1875 C301.08815307 689.79380451 301.03125554 688.39688226 301 687 C300.97292969 685.97261719 300.94585938 684.94523437 300.91796875 683.88671875 C300.82948813 676.6554386 301.20921114 669.52628917 301.7734375 662.3203125 C302.10023459 657.53104484 302.13531636 652.7962132 302 648 C302.01804687 647.30132813 302.03609375 646.60265625 302.0546875 645.8828125 C301.83538821 637.58076813 296.91477456 630.10294324 293 623 C292.49726562 622.08605469 291.99453125 621.17210937 291.4765625 620.23046875 C289.9364883 617.90406037 288.38724693 616.34496394 286.25 614.5625 C282.09787315 611.09487233 282.09787315 611.09487233 280.34375 609.39453125 C273.70159215 603.06168958 265.01109999 600.67514364 256.49511719 597.77001953 C246.47358027 594.33288084 239.28515389 591.25170357 232.640625 582.671875 C230.78250976 580.77836708 229.58834438 580.38262482 227 580 Z M386 724 C385.67 724.99 385.34 725.98 385 727 C385.76183594 727.61875 385.76183594 727.61875 386.5390625 728.25 C392.46103461 733.21824626 396.73321143 738.59981714 401 745 C401.99 744.67 402.98 744.34 404 744 C397.82548529 732.58128864 397.82548529 732.58128864 388.0625 724.5 C387.381875 724.335 386.70125 724.17 386 724 Z M407 762 C405.33808971 765.32382057 405.5953541 768.97279536 405.38354492 772.64282227 C405.34334229 773.33174561 405.30313965 774.02066895 405.26171875 774.73046875 C405.22095215 775.4373584 405.18018555 776.14424805 405.13818359 776.87255859 C405.00550203 778.91529214 404.83258132 780.94997983 404.64453125 782.98828125 C403.49481111 796.66318791 403.30609975 811.49826115 412 823 C414.09032265 823.88227993 414.09032265 823.88227993 416 824 C414.91827584 821.25408482 413.79635604 818.55729575 412.5625 815.875 C407.48424163 803.8530006 406.88077084 792.6988006 409.5546875 779.98828125 C410.44179608 774.03531577 410.14582673 768.00320052 410 762 C409.01 762 408.02 762 407 762 Z M300 830 C299.94465088 830.59014893 299.88930176 831.18029785 299.83227539 831.78833008 C299.57932313 834.46341208 299.320973 837.13794603 299.0625 839.8125 C298.97548828 840.74126953 298.88847656 841.67003906 298.79882812 842.62695312 C298.71181641 843.51962891 298.62480469 844.41230469 298.53515625 845.33203125 C298.41732788 846.56530151 298.41732788 846.56530151 298.29711914 847.82348633 C298 850 298 850 297 853 C296.24832415 861.27917254 296.76083419 868.63744899 299.25 876.5625 C299.45447754 877.21629639 299.65895508 877.87009277 299.86962891 878.54370117 C301.35370229 882.90337706 303.33363599 886.30241402 306 890 C306.99 889.505 306.99 889.505 308 889 C307.5272583 886.66346058 306.90295625 884.81100332 305.80859375 882.6796875 C298.33145718 867.38457622 301.47368908 847.51686458 303 831 C302.01 830.67 301.02 830.34 300 830 Z " fill="#060606" transform="translate(1083,529)"/>
<path d="M0 0 C2.62843068 2.00716525 3.50094026 4.10316567 4.87109375 7.1015625 C7.76754539 13.2008914 11.04650351 18.73723796 14.87109375 24.2890625 C17.22640683 27.9290918 19.25429589 31.68804797 21.30859375 35.50390625 C23.46320208 39.44538928 25.74263524 43.30796124 28.01953125 47.1796875 C30.1800553 50.90107995 32.2760932 54.65556898 34.37109375 58.4140625 C37.79031851 64.53902314 41.38941807 70.51223346 45.1015625 76.46484375 C47.32797024 80.12488718 49.34499642 83.87495274 51.36328125 87.65234375 C53.1619199 90.88720879 55.09704272 94.02675301 57.05859375 97.1640625 C59.54540796 101.15988874 61.85129467 105.11478209 63.859375 109.3671875 C65.86872744 113.31282502 68.23957458 117.06053526 70.54296875 120.83984375 C71.93359375 123.4765625 71.93359375 123.4765625 71.93359375 126.4765625 C-23.10640625 126.4765625 -118.14640625 126.4765625 -216.06640625 126.4765625 C-215.06640625 123.4765625 -215.06640625 123.4765625 -212.9140625 122.1171875 C-211.53541016 121.42882813 -211.53541016 121.42882813 -210.12890625 120.7265625 C-205.30052095 118.20632004 -200.94933614 115.37714889 -196.53515625 112.19921875 C-193.29094812 109.9354596 -189.91310194 107.94821497 -186.50390625 105.9453125 C-183.44161659 104.10008668 -180.49886821 102.10473026 -177.5625 100.06640625 C-175.35986906 98.66347856 -173.14106584 97.40147985 -170.8515625 96.1484375 C-166.12875494 93.54975421 -161.59955694 90.70265119 -157.06640625 87.7890625 C-150.30705262 83.4827802 -143.49206702 79.30755514 -136.56591797 75.27563477 C-130.90715223 71.98116591 -125.29678565 68.61094251 -119.69140625 65.2265625 C-113.89217956 61.73104886 -108.07566958 58.33929944 -102.09375 55.1640625 C-97.70265213 52.71637956 -93.42581925 50.08514907 -89.12890625 47.4765625 C-82.66516442 43.55595183 -76.21591547 39.90720119 -69.3984375 36.63671875 C-66.43766862 35.16377343 -63.78716546 33.35086329 -61.06640625 31.4765625 C-59.74121054 30.71099805 -58.40678976 29.96130681 -57.06640625 29.22265625 C-56.26759033 28.78219971 -55.46877441 28.34174316 -54.64575195 27.88793945 C-51.12184495 25.95971358 -47.59273746 24.04119539 -44.06201172 22.12548828 C-33.67748049 16.49497699 -33.67748049 16.49497699 -23.44140625 10.6015625 C-17.79582087 7.25512131 -11.96545121 4.34612804 -6.06640625 1.4765625 C-5.37546875 1.04988281 -4.68453125 0.62320312 -3.97265625 0.18359375 C-2.06640625 -0.5234375 -2.06640625 -0.5234375 0 0 Z " fill="#040404" transform="translate(1551.06640625,1340.5234375)"/>
<path d="M0 0 C4.07517901 1.358393 4.80633669 3.36674515 7 7 C7.4434375 7.89976562 7.886875 8.79953125 8.34375 9.7265625 C10.24363171 13.48151739 12.34743654 17.07360209 14.5 20.6875 C15.39115739 22.19369555 16.28176129 23.70021868 17.171875 25.20703125 C17.63400391 25.98900879 18.09613281 26.77098633 18.57226562 27.57666016 C24.42182997 37.50531537 30.21432127 47.4616044 35.68359375 57.60546875 C38.58791609 62.88840523 41.76290425 68.01021345 44.9453125 73.12890625 C56.97136554 92.49405249 56.97136554 92.49405249 59 100 C59.66 100 60.32 100 61 100 C61.515625 101.0725 62.03125 102.145 62.5625 103.25 C64.89535755 107.92395841 67.54044306 112.39339347 70.1875 116.89453125 C71.94913667 119.9128527 73.67813047 122.94481904 75.375 126 C76.09816406 127.299375 76.09816406 127.299375 76.8359375 128.625 C77.88846869 130.77244619 78.53501104 132.66424151 79 135 C71.22835361 138.72179281 63.4338094 142.2852336 55.4375 145.5 C49.06618382 148.06925201 42.97312929 150.97578841 36.859375 154.1171875 C32.16819889 156.46277555 27.33161475 158.4645082 22.5 160.5 C15.39831288 163.49554304 8.50123232 166.66951827 1.64453125 170.19140625 C-2.78941792 172.43275693 -7.33515716 174.4220694 -11.875 176.4375 C-18.67142472 179.46040265 -25.36865569 182.61252691 -31.99829102 185.98461914 C-37.05674991 188.55143799 -42.17311845 190.97494907 -47.3125 193.375 C-54.66648997 196.8188015 -61.85354871 200.51324162 -69.01489258 204.33935547 C-74.11188207 207.04787015 -79.25846064 209.58421697 -84.5 212 C-93.85248682 216.31988554 -102.91190392 221.15439791 -112 226 C-115.80903463 228.02744256 -119.62216435 230.04694435 -123.4375 232.0625 C-124.77893066 232.77853394 -124.77893066 232.77853394 -126.14746094 233.5090332 C-126.98438477 233.95077881 -127.82130859 234.39252441 -128.68359375 234.84765625 C-129.42150146 235.23961182 -130.15940918 235.63156738 -130.91967773 236.03540039 C-132.94000757 236.97218283 -134.82618792 237.54082169 -137 238 C-135.98928853 231.68305329 -131.46624466 226.19936698 -128 221 C-127.03853803 219.33346593 -126.07803367 217.66627742 -125.13671875 215.98828125 C-123.7782622 213.61214935 -122.35804254 211.27701079 -120.9375 208.9375 C-119.35706426 206.31657789 -117.86948533 203.73897066 -116.5 201 C-113.80848928 195.61697856 -110.557125 190.54522654 -107.41796875 185.4140625 C-104.76188094 181.04328509 -102.29685501 176.67510259 -100.06640625 172.07421875 C-97.93243809 167.92353342 -95.43425124 163.97918937 -93 160 C-91.23826766 157.08892591 -89.51451762 154.16899315 -87.875 151.1875 C-86.91688207 149.45821397 -85.95850656 147.72907065 -85 146 C-84.65066406 145.36964844 -84.30132813 144.73929688 -83.94140625 144.08984375 C-82.75570641 141.95398714 -81.56564701 139.82060214 -80.375 137.6875 C-79.99069824 136.99358154 -79.60639648 136.29966309 -79.21044922 135.5847168 C-77.71058285 132.90312766 -76.25081042 130.33359625 -74.40234375 127.875 C-72.62428773 125.49765491 -71.45947 122.99309794 -70.1875 120.3125 C-67.95099805 115.75092177 -65.54094186 111.5573186 -62.58984375 107.42578125 C-60.67508838 104.50425033 -59.01749135 101.47577512 -57.33618164 98.4152832 C-55.20045096 94.55473439 -52.97081553 90.74952048 -50.75 86.9375 C-47.26613836 80.94185336 -43.81888705 74.92901838 -40.4375 68.875 C-36.86855375 62.48787231 -33.18305531 56.17520468 -29.45776367 49.87817383 C-26.94850362 45.63146751 -24.50758003 41.35703198 -22.13671875 37.03125 C-19.39440403 32.13089381 -16.44781844 27.34283347 -13.49609375 22.56640625 C-10.11248641 17.0448538 -7.16530453 11.42090516 -4.39453125 5.56640625 C-3.12828918 3.23609522 -1.98370884 1.72623631 0 0 Z " fill="#030303" transform="translate(999,388)"/>
<path d="M0 0 C0.66 0.99 1.32 1.98 2 3 C0.92089526 6.65424104 -0.95301303 9.86459168 -2.828125 13.16796875 C-3.38113281 14.14443359 -3.93414063 15.12089844 -4.50390625 16.12695312 C-5.08011719 17.13693359 -5.65632812 18.14691406 -6.25 19.1875 C-6.81074219 20.17814453 -7.37148438 21.16878906 -7.94921875 22.18945312 C-11.54174082 28.51577663 -15.22639584 34.78006527 -19 41 C-19.99 40.67 -20.98 40.34 -22 40 C-20.34357064 35.42255541 -18.03317045 31.33536336 -15.625 27.125 C-15.23828125 26.44308594 -14.8515625 25.76117187 -14.453125 25.05859375 C-13.6817944 23.69970595 -12.90862245 22.34186156 -12.13354492 20.98510742 C-11.38357231 19.67172657 -10.63629379 18.35680332 -9.8918457 17.0402832 C-8.32095892 14.26780838 -6.71876372 11.58240673 -4.9375 8.9375 C-3.03098497 6.04697721 -1.4872952 3.12331993 0 0 Z " fill="#303030" transform="translate(844,655)"/>
<path d="M0 0 C1 3 1 3 0 6 C-0.66 6.66 -1.32 7.32 -2 8 C-2 8.99 -2 9.98 -2 11 C-3.1015625 13.26831055 -3.1015625 13.26831055 -4.625 15.88671875 C-5.16640625 16.82451172 -5.7078125 17.76230469 -6.265625 18.72851562 C-6.83796875 19.70498047 -7.4103125 20.68144531 -8 21.6875 C-8.85851562 23.16959961 -8.85851562 23.16959961 -9.734375 24.68164062 C-11.15052464 27.12449876 -12.57258458 29.56371318 -14 32 C-14.99 31.67 -15.98 31.34 -17 31 C-14.00857405 23.12257832 -9.69574291 15.96787657 -5 9 C-3.28992778 6.02339014 -1.63627239 3.01771547 0 0 Z " fill="#494949" transform="translate(742,832)"/>
<path d="M0 0 C0.66 0.99 1.32 1.98 2 3 C0.7063851 7.64866773 -2.00114869 11.96594099 -4.3125 16.1875 C-4.69083984 16.91130859 -5.06917969 17.63511719 -5.45898438 18.38085938 C-8.36101128 23.65950391 -8.36101128 23.65950391 -11.79296875 25.48828125 C-12.52128906 25.65714844 -13.24960937 25.82601562 -14 26 C-12.6009297 21.92997732 -10.53046749 18.57388783 -8.2265625 14.9765625 C-6.63031859 12.40427135 -5.33007201 9.71797323 -4 7 C-2.69390326 4.64997923 -1.34900876 2.32587717 0 0 Z " fill="#3D3D3D" transform="translate(714,880)"/>
<path d="M0 0 C0.66 0.99 1.32 1.98 2 3 C0.83779911 7.10971036 -1.45625165 10.6577574 -3.625 14.3125 C-4.25664063 15.38113281 -4.88828125 16.44976563 -5.5390625 17.55078125 C-6.02117188 18.35902344 -6.50328125 19.16726563 -7 20 C-8.16796875 18.33984375 -8.16796875 18.33984375 -9 16 C-7.98828125 13.37890625 -7.98828125 13.37890625 -6.3125 10.5625 C-5.77238281 9.63566406 -5.23226562 8.70882812 -4.67578125 7.75390625 C-4.12277344 6.84511719 -3.56976562 5.93632813 -3 5 C-2.15501953 3.59041016 -2.15501953 3.59041016 -1.29296875 2.15234375 C-0.86628906 1.44207031 -0.43960938 0.73179687 0 0 Z " fill="#2B2B2B" transform="translate(795,740)"/>
<path d="M0 0 C0.66 0.99 1.32 1.98 2 3 C1.4375 5.125 1.4375 5.125 0 8 C-0.53367187 9.11568359 -0.53367187 9.11568359 -1.078125 10.25390625 C-4.3036845 16.61315806 -4.3036845 16.61315806 -7.8125 18.5625 C-8.534375 18.706875 -9.25625 18.85125 -10 19 C-8.59478925 15.28429849 -6.91641021 11.85328453 -5 8.375 C-4.484375 7.43398438 -3.96875 6.49296875 -3.4375 5.5234375 C-2.3640955 3.63914591 -1.20291339 1.80437008 0 0 Z " fill="#424242" transform="translate(814,707)"/>
<path d="M0 0 C0.66 0.99 1.32 1.98 2 3 C0.79724696 7.32991096 -1.73452211 11.14868759 -4 15 C-4.99 14.67 -5.98 14.34 -7 14 C-5.23570801 9.02790438 -2.6060834 4.56561939 0 0 Z " fill="#434343" transform="translate(844,655)"/>
<path d="M0 0 C0.66 0.99 1.32 1.98 2 3 C0.94479717 6.64524612 -0.78104817 9.92760516 -3 13 C-5.1875 13.8125 -5.1875 13.8125 -7 14 C-6.34 12.02 -5.68 10.04 -5 8 C-4.34 8 -3.68 8 -3 8 C-2.690625 6.865625 -2.38125 5.73125 -2.0625 4.5625 C-1 1 -1 1 0 0 Z " fill="#474747" transform="translate(695,913)"/>
<path d="M0 0 C0.33 0 0.66 0 1 0 C1.5497272 5.63470383 -0.04952165 8.38987758 -3 13 C-3.99 13 -4.98 13 -6 13 C-6 9.34899606 -4.9552415 7.89878202 -3.0625 4.8125 C-2.51722656 3.91144531 -1.97195313 3.01039063 -1.41015625 2.08203125 C-0.71212891 1.05142578 -0.71212891 1.05142578 0 0 Z " fill="#4A4A4A" transform="translate(750,818)"/>
<path d="M0 0 C1.1484375 1.703125 1.1484375 1.703125 2 4 C1.1015625 6.359375 1.1015625 6.359375 -0.375 8.75 C-1.09816406 9.94882812 -1.09816406 9.94882812 -1.8359375 11.171875 C-2.22007812 11.77515625 -2.60421875 12.3784375 -3 13 C-3.99 12.67 -4.98 12.34 -6 12 C-4.43358249 7.69235185 -2.31663844 3.93828536 0 0 Z " fill="#424242" transform="translate(776,773)"/>
<path d="M0 0 C1.47440964 2.94881929 0.50345993 5.00020859 -0.33203125 8.08984375 C-1.13755181 10.39334991 -1.93053265 11.6755409 -4 13 C-4.99 13 -5.98 13 -7 13 C-5.35821735 8.22390502 -2.73453298 4.20617096 0 0 Z " fill="#575757" transform="translate(765,792)"/>
<path d="M0 0 C1 3 1 3 0 6 C-0.66 6.66 -1.32 7.32 -2 8 C-2 8.99 -2 9.98 -2 11 C-3.4375 13.6875 -3.4375 13.6875 -5 16 C-5.33 16 -5.66 16 -6 16 C-5.59683075 9.68368172 -3.28767869 5.35006016 0 0 Z " fill="#323232" transform="translate(742,832)"/>
<path d="M0 0 C0.66 0.33 1.32 0.66 2 1 C1.43454163 4.95820859 0.19097652 7.6659053 -2 11 C-2.99 10.67 -3.98 10.34 -5 10 C-3.33333333 6.66666667 -1.66666667 3.33333333 0 0 Z " fill="#3C3C3C" transform="translate(720,870)"/>
<path d="M0 0 C0.6875 1.6875 0.6875 1.6875 1 4 C-0.1875 6.75 -0.1875 6.75 -2 9 C-3.32 9 -4.64 9 -6 9 C-6 8.34 -6 7.68 -6 7 C-5.34 7 -4.68 7 -4 7 C-3.71125 6.21625 -3.4225 5.4325 -3.125 4.625 C-2 2 -2 2 0 0 Z " fill="#2B2B2B" transform="translate(760,803)"/>
<path d="M0 0 C0.66 0.99 1.32 1.98 2 3 C1.1025444 6.06630664 0.26961192 7.73038808 -2 10 C-2.99 10 -3.98 10 -5 10 C-3.33333333 6.66666667 -1.66666667 3.33333333 0 0 Z " fill="#4E4E4E" transform="translate(714,880)"/>
<path d="M0 0 C1.1875 1.625 1.1875 1.625 2 4 C0.625 7.25 0.625 7.25 -1 10 C-1.99 9.67 -2.98 9.34 -4 9 C-2.94124926 5.59687262 -1.99097846 2.98646769 0 0 Z " fill="#363636" transform="translate(850,645)"/>
<path d="M0 0 C0.6875 1.6875 0.6875 1.6875 1 4 C-0.25 6.75 -0.25 6.75 -2 9 C-2.99 9 -3.98 9 -5 9 C-4.42647107 5.12867972 -2.51295648 2.91827204 0 0 Z " fill="#232323" transform="translate(838,668)"/>
<path d="M0 0 C0.75 1.6875 0.75 1.6875 1 4 C-0.9375 6.75 -0.9375 6.75 -3 9 C-3.66 8.67 -4.32 8.34 -5 8 C-3.8141763 4.62496331 -2.72426311 2.35277269 0 0 Z " fill="#272727" transform="translate(730,855)"/>
<path d="M0 0 C1.1875 1.6875 1.1875 1.6875 2 4 C0.8125 6.75 0.8125 6.75 -1 9 C-1.99 9 -2.98 9 -4 9 C-2.94124926 5.59687262 -1.99097846 2.98646769 0 0 Z " fill="#333333" transform="translate(820,697)"/>
<path d="M0 0 C0.66 0.33 1.32 0.66 2 1 C0.68 3.31 -0.64 5.62 -2 8 C-2.99 7.67 -3.98 7.34 -5 7 C-3.75023244 3.34683329 -3.32901247 2.21934164 0 0 Z " fill="#444444" transform="translate(857,636)"/>
<path d="M0 0 C0.75 1.6875 0.75 1.6875 1 4 C-0.9375 6.75 -0.9375 6.75 -3 9 C-3.93423645 5.98968256 -4.04449911 5.13349732 -3 2 C-2.01 1.34 -1.02 0.68 0 0 Z " fill="#252525" transform="translate(711,888)"/>
<path d="M0 0 C0.99 0 1.98 0 3 0 C3.33 1.32 3.66 2.64 4 4 C1.69 4 -0.62 4 -3 4 C-1.6875 2 -1.6875 2 0 0 Z " fill="#121212" transform="translate(1340,1462)"/>
<path d="M0 0 C0.99 0.33 1.98 0.66 3 1 C1.92598892 3.91517292 1.22189824 5.77810176 -1 8 C-1.93065133 5.39417629 -2.14917407 4.35801776 -1.0625 1.75 C-0.711875 1.1725 -0.36125 0.595 0 0 Z " fill="#303030" transform="translate(803,726)"/>
<path d="M0 0 C0.66 0 1.32 0 2 0 C1.25 4.75 1.25 4.75 -1 7 C-1.66 6.67 -2.32 6.34 -3 6 C-1.125 1.125 -1.125 1.125 0 0 Z " fill="#3B3B3B" transform="translate(825,689)"/>
<path d="M0 0 C0.66 0.99 1.32 1.98 2 3 C1.125 5.6875 1.125 5.6875 0 8 C-0.99 7.67 -1.98 7.34 -3 7 C-1.125 1.125 -1.125 1.125 0 0 Z " fill="#555555" transform="translate(699,906)"/>
<path d="M0 0 C0.66 0.99 1.32 1.98 2 3 C1.125 5.6875 1.125 5.6875 0 8 C-0.99 7.67 -1.98 7.34 -3 7 C-1.125 1.125 -1.125 1.125 0 0 Z " fill="#575757" transform="translate(780,766)"/>
<path d="M0 0 C0.66 0.99 1.32 1.98 2 3 C1.125 5.6875 1.125 5.6875 0 8 C-0.99 7.67 -1.98 7.34 -3 7 C-1.125 1.125 -1.125 1.125 0 0 Z " fill="#595959" transform="translate(795,740)"/>
<path d="M0 0 C0.75 1.6875 0.75 1.6875 1 4 C-0.9375 6.75 -0.9375 6.75 -3 9 C-2.25 2.25 -2.25 2.25 0 0 Z " fill="#151515" transform="translate(745,829)"/>
<path d="M0 0 C0.66 0.99 1.32 1.98 2 3 C1.125 5.6875 1.125 5.6875 0 8 C-0.99 7.67 -1.98 7.34 -3 7 C-1.125 1.125 -1.125 1.125 0 0 Z " fill="#505050" transform="translate(769,785)"/>
</svg>
